<svg width="69" height="57" viewBox="0 0 69 57" fill="none" xmlns="http://www.w3.org/2000/svg">
<g clip-path="url(#clip0_1218_6374)">
<path d="M7.1487 31.1758H2.57727V35.3922H0V38.678H2.5788V45.4962C2.5788 48.2869 3.60572 49.8148 7.14564 49.8148C8.2047 49.8148 9.25152 49.7173 10.029 49.4964V46.3934C9.63567 46.4803 9.19184 46.4833 8.80005 46.4833C7.40734 46.4833 7.15023 45.9243 7.15023 44.7056V38.678H10.4789V35.3922H7.15023V31.1758H7.1487Z" fill="white"/>
<path d="M21.0088 39.1456V35.0281C18.026 34.955 16.269 36.3671 15.4671 38.2514C15.4671 37.4806 15.412 35.8979 15.3339 35.3922H10.8926C10.9201 36.687 10.9201 37.9848 10.9201 39.2796V49.7004H15.4655V44.4725C15.4655 40.3916 17.7566 39.0922 21.0073 39.1456H21.0088Z" fill="white"/>
<path d="M28.3667 35.0034C23.1143 35.0034 20.3916 38.5344 20.3916 42.565C20.3916 46.2026 22.5143 50.0886 28.4004 50.0886C33.0162 50.0886 35.1772 47.86 36.045 45.3252H31.4996C30.9761 46.2026 30.1665 46.7267 28.4494 46.7267C26.296 46.7267 25.035 45.3755 24.9171 43.6466H36.1934C36.2179 43.1881 36.2179 42.9276 36.2179 42.5666C36.2179 41.9024 36.1444 41.2367 35.996 40.5878L28.4708 35.0065C28.4356 35.0065 28.4019 35.0049 28.3667 35.0049V35.0034ZM24.9737 40.8757C25.1084 39.4682 25.9762 38.1719 28.3637 38.1719C30.9256 38.1719 31.5164 39.7835 31.6067 40.8757H24.9722H24.9737Z" fill="white"/>
<path d="M48.6038 35.4045L48.5701 35.4867L48.4691 35.3573C47.8064 35.1257 47.058 35.0054 46.2285 35.0054C45.6041 35.0054 45.0562 35.0693 44.5695 35.1775L36.9097 41.1671V49.7036H41.4811V42.5655C41.4811 39.9865 42.4682 38.5226 44.5894 38.5226C46.7106 38.5226 47.2692 39.9622 47.2692 41.5997V49.7036H51.8636V40.8777C51.8636 38.1129 50.6852 36.1935 48.6038 35.406V35.4045Z" fill="white"/>
<path d="M68.9726 45.6757V29.0825H64.4012V36.4796C63.9879 35.951 62.8462 35.0051 60.0409 35.0051C56.4842 35.0051 52.6382 37.843 52.6382 42.6703C52.6382 47.1381 55.621 50.0902 59.6155 50.0902C62.5968 50.0902 63.6099 49.1488 64.4012 48.049C64.4256 48.605 64.4532 49.2783 64.5129 49.7033H69.0001C68.9726 48.3704 68.9726 47.0101 68.9726 45.6772V45.6757ZM60.9531 46.5531C58.6237 46.5531 57.3137 44.8272 57.3137 42.5697C57.3137 40.46 58.5028 38.5178 60.9684 38.5178C63.4339 38.5178 64.5129 40.0913 64.5129 42.5499C64.5129 45.0085 63.3084 46.5531 60.9515 46.5531H60.9531Z" fill="white"/>
<path d="M50.6896 26.6528L44.1056 27.5226L45.1371 28.8403L36.8207 35.1391L29.8281 29.9508V34.2784L36.8207 39.4652L47.1405 31.3979L48.1904 32.7384L50.6896 26.6528Z" fill="#00AAA5"/>
<path d="M13.6942 54.6162C13.6942 55.3748 13.2534 55.9871 12.4469 55.9871C11.6847 55.9871 11.2256 55.4083 11.2256 54.6268C11.2256 53.8454 11.6786 53.2559 12.4775 53.2559C13.2136 53.2559 13.6942 53.7982 13.6942 54.6162ZM11.7444 54.6223C11.7444 55.1813 12.0184 55.5743 12.4652 55.5743C12.9121 55.5743 13.1754 55.1981 13.1754 54.6238C13.1754 54.0495 12.9198 53.6687 12.4545 53.6687C11.9893 53.6687 11.7444 54.0343 11.7444 54.6207V54.6223Z" fill="#BCBEC0"/>
<path d="M14.986 53.9748C14.986 53.7493 14.986 53.5178 14.9814 53.3183H15.4727C15.485 53.3929 15.4926 53.6488 15.4926 53.728C15.5936 53.5163 15.8079 53.2573 16.3053 53.2573C16.8027 53.2573 17.1792 53.5666 17.1792 54.2536V55.9277H16.6741V54.316C16.6741 53.9413 16.5303 53.6869 16.1461 53.6869C15.6885 53.6869 15.4926 54.022 15.4926 54.5338V55.9292H14.9876V53.9778L14.986 53.9748Z" fill="#BCBEC0"/>
<path d="M18.9741 54.7182C18.9771 55.2087 19.2251 55.5743 19.6536 55.5743C20.0454 55.5743 20.1709 55.3793 20.252 55.195H20.7601C20.6591 55.5256 20.3775 55.9871 19.6383 55.9871C18.8072 55.9871 18.4629 55.3245 18.4629 54.6512C18.4629 53.8667 18.8608 53.2559 19.6658 53.2559C20.5213 53.2559 20.8045 53.9261 20.8045 54.5004C20.8045 54.5811 20.8045 54.6466 20.7968 54.7182H18.9725H18.9741ZM20.2948 54.3755C20.2902 53.9703 20.0913 53.6428 19.6612 53.6428C19.2312 53.6428 19.0322 53.9459 18.9894 54.3755H20.2948Z" fill="#BCBEC0"/>
<path d="M24.2311 55.2024C24.3122 55.5132 24.5388 55.699 24.9214 55.699C25.3453 55.699 25.5152 55.5101 25.5152 55.2451C25.5152 54.98 25.3927 54.846 24.8525 54.715C24.1515 54.5459 23.9909 54.3342 23.9909 53.9899C23.9909 53.6456 24.2602 53.2861 24.8816 53.2861C25.5029 53.2861 25.7815 53.6548 25.8197 54.0188H25.4815C25.4387 53.8254 25.2887 53.574 24.8678 53.574C24.4469 53.574 24.3367 53.7736 24.3367 53.9625C24.3367 54.1788 24.453 54.2869 24.9489 54.4058C25.7049 54.5855 25.8748 54.8338 25.8748 55.2192C25.8748 55.6807 25.5029 55.9884 24.9122 55.9884C24.2847 55.9884 23.9541 55.6655 23.8853 55.204H24.2327L24.2311 55.2024Z" fill="#BCBEC0"/>
<path d="M26.8267 53.347H27.2934V52.5625H27.6378V53.347H28.2331V53.644H27.6378V55.2435C27.6378 55.5146 27.699 55.6639 27.9424 55.6639C28.0128 55.6639 28.1138 55.6593 28.1918 55.6365V55.9122C28.0939 55.9503 27.9561 55.9594 27.8398 55.9594C27.4756 55.9594 27.2934 55.7751 27.2934 55.3547V53.6425H26.8267V53.3455V53.347Z" fill="#BCBEC0"/>
<path d="M31.5867 54.6313C31.5867 55.3594 31.175 55.987 30.393 55.987C29.6737 55.987 29.2329 55.4142 29.2329 54.6374C29.2329 53.8605 29.6568 53.2847 30.4205 53.2847C31.123 53.2847 31.5867 53.8209 31.5867 54.6297V54.6313ZM29.5926 54.6358C29.5926 55.2269 29.9017 55.6854 30.4129 55.6854C30.9241 55.6854 31.2271 55.2573 31.2271 54.6374C31.2271 54.0174 30.9378 53.5878 30.4037 53.5878C29.8696 53.5878 29.5941 54.0311 29.5941 54.6374L29.5926 54.6358Z" fill="#BCBEC0"/>
<path d="M33.2645 55.5726V56.9481H32.9201V53.9792C32.9201 53.769 32.9201 53.5451 32.9155 53.3471H33.2522C33.2629 53.44 33.2645 53.5954 33.2645 53.7842C33.416 53.4979 33.6899 53.2861 34.146 53.2861C34.7521 53.2861 35.1806 53.7919 35.1806 54.5703C35.1806 55.4949 34.6817 55.9869 34.0557 55.9869C33.6165 55.9869 33.3869 55.798 33.2629 55.5726H33.2645ZM34.8225 54.584C34.8225 54.0097 34.55 53.5954 34.0695 53.5954C33.4833 53.5954 33.2461 53.9625 33.2461 54.6297C33.2461 55.2969 33.4359 55.6853 34.0343 55.6853C34.5439 55.6853 34.8225 55.2618 34.8225 54.5855V54.584Z" fill="#BCBEC0"/>
<path d="M40.4093 55.4021C40.4093 55.6321 40.4291 55.8469 40.446 55.9246H40.1154C40.094 55.8652 40.0787 55.7479 40.071 55.5544C39.9823 55.7372 39.7634 55.9855 39.2446 55.9855C38.6385 55.9855 38.3799 55.594 38.3799 55.2056C38.3799 54.6344 38.8268 54.3739 39.5996 54.3739H40.0695V54.1302C40.0695 53.8864 39.9945 53.5711 39.4512 53.5711C38.9691 53.5711 38.8941 53.8179 38.8405 54.0235H38.5023C38.5345 53.7067 38.7319 53.2817 39.4604 53.2832C40.071 53.2832 40.4108 53.5361 40.4108 54.1119V55.4006L40.4093 55.4021ZM40.0726 54.6374H39.6058C39.0579 54.6374 38.7365 54.7836 38.7365 55.1904C38.7365 55.4889 38.9477 55.6991 39.2905 55.6991C39.9777 55.6991 40.0726 55.2422 40.0726 54.7258V54.6374Z" fill="#BCBEC0"/>
<path d="M43.9958 55.7249C43.9958 56.5505 43.6392 56.9999 42.8449 56.9999C42.121 56.9999 41.8578 56.5962 41.8027 56.223H42.1547C42.2404 56.5459 42.5051 56.7059 42.8587 56.7059C43.4938 56.7059 43.6606 56.3007 43.6606 55.6746V55.4339C43.5213 55.7477 43.2749 55.9214 42.8204 55.9214C42.2006 55.9214 41.7476 55.4187 41.7476 54.6403C41.7476 53.7857 42.2419 53.2876 42.8602 53.2876C43.3729 53.2876 43.5933 53.5283 43.6591 53.7187C43.6637 53.5846 43.6713 53.4079 43.6774 53.3501H44.0034C44.0034 53.4689 43.9942 53.8482 43.9942 54.0965V55.7264L43.9958 55.7249ZM42.1118 54.6235C42.1118 55.2054 42.4194 55.6152 42.8816 55.6152C43.4892 55.6152 43.6698 55.2115 43.6698 54.587C43.6698 53.9624 43.4877 53.5907 42.8969 53.5907C42.3551 53.5907 42.1103 54.0508 42.1103 54.625L42.1118 54.6235Z" fill="#BCBEC0"/>
<path d="M45.6825 54.6906C45.6871 55.2908 45.9901 55.6853 46.4615 55.6853C46.9329 55.6853 47.0645 55.4416 47.1517 55.2405H47.5007C47.3951 55.5756 47.1196 55.9869 46.4493 55.9869C45.6488 55.9869 45.332 55.3197 45.332 54.6601C45.332 53.9092 45.7085 53.2861 46.4799 53.2861C47.2941 53.2861 47.5573 53.964 47.5573 54.4773C47.5573 54.552 47.5573 54.6221 47.5512 54.6906H45.6825ZM47.2053 54.424C47.2007 53.9533 46.9497 53.5786 46.4722 53.5786C45.9947 53.5786 45.7498 53.9244 45.6993 54.424H47.2053Z" fill="#BCBEC0"/>
<path d="M48.8869 53.9975C48.8869 53.772 48.8869 53.5511 48.8823 53.3485H49.219C49.2297 53.4277 49.2359 53.7339 49.2328 53.8086C49.3415 53.5648 49.5542 53.2876 50.073 53.2876C50.5444 53.2876 50.9408 53.5633 50.9408 54.2625V55.9275H50.5964V54.3112C50.5964 53.8832 50.4219 53.6014 49.9965 53.6014C49.4379 53.6014 49.2328 54.0477 49.2328 54.59V55.9275H48.8884V53.999L48.8869 53.9975Z" fill="#BCBEC0"/>
<path d="M54.4389 55.1537C54.3211 55.6031 54.0196 55.9869 53.4044 55.9869C52.7264 55.9869 52.2749 55.4934 52.2749 54.648C52.2749 53.932 52.6698 53.2861 53.4365 53.2861C54.1344 53.2861 54.3992 53.7797 54.4389 54.1285H54.0931C54.0211 53.8467 53.839 53.5877 53.4289 53.5877C52.9207 53.5877 52.6346 54.0188 52.6346 54.6358C52.6346 55.2527 52.907 55.6868 53.4074 55.6868C53.761 55.6868 53.9706 55.504 54.0915 55.1537H54.4389Z" fill="#BCBEC0"/>
<path d="M55.8747 53.3472C56.3506 54.7121 56.5787 55.3549 56.6583 55.6261H56.6628C56.7577 55.3214 56.9536 54.7273 57.4204 53.3472H57.7724L56.8174 56.0602C56.5481 56.8188 56.3583 56.9986 55.8624 56.9986C55.7752 56.9986 55.6971 56.994 55.6053 56.9818V56.6649C55.6772 56.6741 55.7507 56.6802 55.8288 56.6802C56.1808 56.6802 56.3032 56.5157 56.4761 56.0313L55.4951 53.3457H55.8701L55.8747 53.3472Z" fill="#BCBEC0"/>
<path d="M59.542 54.9849H68.8823" stroke="#BCBEC0" stroke-width="1.22" stroke-miterlimit="10"/>
<path d="M0.119629 54.9849H9.45992" stroke="#BCBEC0" stroke-width="1.22" stroke-miterlimit="10"/>
<path d="M16.5881 34.81C17.8002 34.0148 19.3199 33.6096 21.0432 33.6522C21.0784 33.6522 21.1136 33.6568 21.1488 33.6599V0.94873H14.0414C12.0319 3.20625 7.84925 6.44933 2.21875 7.79287V14.9143C4.33841 14.7726 9.2695 13.4854 11.6754 12.1099V34.0148H15.3346C15.8841 34.0148 16.3662 34.3347 16.5881 34.81Z" fill="#00AAA5"/>
<path d="M28.4444 33.6297V29.9509C28.4444 29.43 28.7397 28.9547 29.2065 28.7201C29.6748 28.4871 30.2334 28.5358 30.6528 28.8465L36.8113 33.4149L37.9316 32.5664C37.0761 29.8413 36.7501 26.6743 36.7501 23.6521C36.7501 14.7988 39.1529 7.58294 46.4087 7.58294C53.6645 7.58294 55.7199 16.0189 55.7199 23.3688C55.7199 28.8664 54.9991 34.1171 52.4494 37.1652C52.532 37.3328 52.61 37.5034 52.6789 37.6801C53.0661 37.0769 53.5268 36.5209 54.0594 36.0228C55.6893 34.501 57.8702 33.6282 60.0403 33.6282C61.2662 33.6282 62.2427 33.7942 63.0171 34.041V29.0842C63.0171 28.3241 63.6369 27.7071 64.4006 27.7071H65.3525C65.4933 26.2874 65.5607 24.822 65.5607 23.3216C65.5622 10.6295 59.142 0 46.3612 0C33.5805 0 26.8604 10.663 26.8604 23.7481C26.8604 27.2913 27.3149 30.6334 28.227 33.6297C28.2745 33.6297 28.3204 33.6266 28.3663 33.6266C28.3923 33.6266 28.4183 33.6266 28.4444 33.6266V33.6297Z" fill="#00AAA5"/>
</g>
<defs>
<clipPath id="clip0_1218_6374">
<rect width="69" height="57" fill="white"/>
</clipPath>
</defs>
</svg>
