<svg width="102" height="34" viewBox="0 0 102 34" fill="none" xmlns="http://www.w3.org/2000/svg">
<path d="M10.594 27.4752H26.6339V33.1579H0.100098V28.3598L15.0724 15.3807C17.494 13.3022 18.3273 11.489 18.3273 9.8751C18.3273 7.37658 16.4785 5.82879 13.1977 5.82879C10.0991 5.82879 7.85957 7.17756 7.85957 10.9807V13.3465L0.386468 12.7053V11.1133C0.386468 4.36946 5.43795 0.721191 13.1457 0.721191C20.3844 0.721191 25.7225 4.05995 25.7225 9.91941C25.7225 13.214 24.056 15.6684 20.775 18.5649L10.594 27.4752ZM50.4857 33.6001C39.6274 33.6001 31.6335 27.2321 31.6335 17.26C31.6335 7.15517 39.8098 0.76498 50.8764 0.76498C58.1412 0.76498 64.1563 3.48471 67.4371 8.28273L60.5887 11.3783C58.6097 8.1059 55.0685 6.53592 50.8761 6.53592C44.3664 6.53592 39.4711 10.3391 39.4711 17.1051C39.4711 23.628 44.0541 27.8289 51.1627 27.8289C55.9798 27.8289 60.4066 25.7947 61.4742 21.1292H51.1889V15.8005H68.8695V33.1577H62.7242V28.7355C60.3026 31.7647 56.2403 33.6001 50.4857 33.6001ZM88.086 0.78692C95.8716 0.78692 101.913 5.56298 101.913 11.9088C101.913 14.4073 100.949 16.928 98.5535 19.6919L86.836 33.1576H78.2953L88.0338 22.3453C87.4609 22.4116 86.9141 22.4337 86.3412 22.4337C79.9616 22.4337 74.1811 18.3211 74.155 11.9309C74.1029 5.38606 80.6129 0.78692 88.086 0.78692ZM94.8562 12.1524C94.9344 8.81365 92.3826 6.51416 88.2945 6.51416C84.3365 6.51416 81.4984 8.79169 81.4723 12.0861C81.4202 15.4026 84.1283 17.8129 88.2164 17.8129C92.2003 17.8129 94.8043 15.3363 94.8562 12.1524Z" fill="white"/>
</svg>
