<svg width="337" height="154" viewBox="0 0 337 154" fill="none" xmlns="http://www.w3.org/2000/svg">
<path d="M54.3289 79.538C50.6865 83.0027 45.1965 82.6771 41.7404 79.0158C38.4604 75.5598 38.4246 70.0435 42.0669 66.5874C45.5374 63.3035 51.1993 63.4484 54.4864 66.916C57.9469 70.5657 57.7865 76.2455 54.3289 79.538ZM85.7651 112.73C82.127 116.186 76.6284 115.859 73.3327 112.396C69.8894 108.743 70.0355 103.432 73.675 99.9589C77.1326 96.6735 82.6312 96.642 86.0816 100.286C89.3702 103.758 89.2241 109.436 85.7651 112.73Z" fill="#C00C0F"/>
<path d="M72.0579 96.8601C67.7266 100.979 61.1753 100.579 57.2837 96.4684C53.1644 92.1314 53.1472 85.5765 57.4714 81.4662C61.5835 77.5525 68.3368 77.7318 72.4332 82.0717C76.3419 86.1977 76.1615 92.9478 72.0579 96.8601Z" fill="#C00C0F"/>
<path d="M39.5485 94.6136C36.8242 97.1974 32.3869 96.9191 29.7959 94.1817C27.2049 91.4358 27.3237 87.1778 30.0609 84.5868C32.7894 81.9886 37.2195 81.9241 39.8091 84.6614C42.4045 87.3973 42.2856 92.0154 39.5485 94.6136Z" fill="#C00C0F"/>
<path d="M66.9999 123.605C64.2756 126.205 60.0174 126.088 57.4306 123.36C54.8324 120.624 54.7752 116.169 57.5123 113.58C60.2365 110.974 64.8543 111.112 67.441 113.842C70.0335 116.578 69.7327 121.015 66.9999 123.605Z" fill="#C00C0F"/>
<path d="M32.9524 38.4871C31.7493 37.2203 31.8022 35.0869 33.2575 33.6982C34.5308 32.4888 36.6592 32.5375 37.8752 33.813C39.2588 35.2835 39.2058 37.3996 37.921 38.6176C36.4716 40.0063 34.3432 39.949 32.9524 38.4871Z" fill="#C00C0F"/>
<path d="M9.42469 60.5735C8.21726 59.2981 8.27885 57.182 9.55074 55.9639C11.0145 54.5738 13.1315 54.6326 14.3475 55.8994C15.7254 57.3627 15.6724 59.4946 14.2129 60.8834C12.9367 62.0928 10.8083 62.0454 9.42469 60.5735Z" fill="#C00C0F"/>
<path d="M1.3811 49.4193C0.394242 48.382 0.44294 46.6504 1.4742 45.6619C2.66587 44.5257 4.39896 44.5658 5.38295 45.6203C6.51304 46.8053 6.46291 48.5298 5.27267 49.6574C4.23998 50.6459 2.50689 50.6129 1.3811 49.4193Z" fill="#C00C0F"/>
<path d="M22.6963 28.5993C21.7052 27.5535 21.7539 25.829 22.7937 24.8319C23.9768 23.7043 25.7099 23.7545 26.6968 24.7918C27.8225 25.9854 27.7738 27.717 26.5865 28.8446C25.5523 29.8331 23.8193 29.7929 22.6963 28.5993Z" fill="#C00C0F"/>
<path d="M6.6499 32.9049C5.43817 31.6224 5.49976 29.489 6.76448 28.2724C8.0378 27.0716 10.1748 27.129 11.3937 28.4116C12.7601 29.8577 12.7042 31.9982 11.4309 33.2076C10.1576 34.4171 8.0292 34.3525 6.6499 32.9049Z" fill="#C00C0F"/>
<path d="M43.8775 51.1837C41.8021 49.0016 42.0785 45.6359 44.0866 43.7321C46.268 41.6576 49.4548 41.7379 51.526 43.9214C53.4266 45.9386 53.3407 49.1335 51.1679 51.2009C49.1555 53.1204 45.7824 53.2022 43.8775 51.1837Z" fill="#C00C0F"/>
<path d="M18.9356 74.8812C16.8674 72.6991 16.9533 69.4955 19.1319 67.4282C21.1385 65.5345 24.5073 65.4355 26.5798 67.6247C28.4762 69.6361 28.2198 73.0104 26.2132 74.9056C24.0275 76.9801 20.8377 76.8983 18.9356 74.8812Z" fill="#C00C0F"/>
<path d="M16.2361 46.6818C14.3354 44.6733 14.6047 41.2975 16.5984 39.3937C18.7856 37.3192 21.9782 37.4082 23.876 39.4196C25.9571 41.6017 25.8755 44.8038 23.684 46.8783C21.6817 48.7821 18.3129 48.8725 16.2361 46.6818Z" fill="#C00C0F"/>
<path d="M28.7759 62.1171C26.1978 59.3884 26.4871 54.9582 29.2128 52.3514C31.9585 49.7533 36.2167 49.8752 38.7977 52.614C41.3916 55.3427 41.4561 59.7887 38.7161 62.3868C35.9818 64.985 31.3741 64.8558 28.7759 62.1171Z" fill="#C00C0F"/>
<path d="M113.969 120.974C115.216 122.216 117.344 122.199 118.748 120.77C119.988 119.519 119.971 117.387 118.724 116.152C117.287 114.739 115.175 114.747 113.934 116.004C112.532 117.427 112.532 119.552 113.969 120.974Z" fill="#C00C0F"/>
<path d="M91.4203 144.073C92.6778 145.307 94.7977 145.298 96.0395 144.048C97.4574 142.609 97.4417 140.486 96.2013 139.242C94.7661 137.838 92.6291 137.854 91.2241 139.275C89.9851 140.528 90.0023 142.66 91.4203 144.073Z" fill="#C00C0F"/>
<path d="M102.392 152.368C103.412 153.372 105.141 153.364 106.154 152.351C107.312 151.19 107.295 149.451 106.275 148.444C105.109 147.292 103.381 147.292 102.221 148.461C101.225 149.483 101.225 151.216 102.392 152.368Z" fill="#C00C0F"/>
<path d="M123.618 131.465C124.638 132.462 126.377 132.462 127.38 131.434C128.538 130.272 128.523 128.533 127.51 127.527C126.344 126.367 124.607 126.382 123.457 127.559C122.453 128.573 122.453 130.313 123.618 131.465Z" fill="#C00C0F"/>
<path d="M118.976 147.44C120.241 148.665 122.369 148.658 123.608 147.409C124.84 146.166 124.832 144.017 123.577 142.783C122.157 141.377 120.02 141.384 118.78 142.635C117.548 143.885 117.574 146.027 118.976 147.44Z" fill="#C00C0F"/>
<path d="M101.521 109.77C103.65 111.895 107.02 111.691 108.961 109.73C111.08 107.59 111.065 104.395 108.928 102.279C106.954 100.326 103.766 100.342 101.651 102.484C99.7093 104.452 99.546 107.835 101.521 109.77Z" fill="#C00C0F"/>
<path d="M77.3412 134.26C79.4782 136.383 82.6679 136.36 84.7978 134.218C86.7314 132.241 86.8861 128.883 84.7491 126.759C82.7739 124.816 79.4123 124.995 77.4715 126.97C75.3675 129.119 75.3832 132.316 77.3412 134.26Z" fill="#C00C0F"/>
<path d="M105.443 137.545C107.401 139.498 110.779 139.294 112.712 137.334C114.841 135.177 114.816 131.989 112.851 130.045C110.714 127.929 107.514 127.936 105.403 130.085C103.452 132.045 103.298 135.436 105.443 137.545Z" fill="#C00C0F"/>
<path d="M90.2773 124.659C92.9529 127.315 97.3916 127.109 100.05 124.43C102.694 121.75 102.66 117.484 99.9841 114.83C97.3085 112.173 92.8713 112.018 90.2272 114.707C87.5689 117.395 87.6018 122.011 90.2773 124.659Z" fill="#C00C0F"/>
<path d="M69.4488 65.7855C72.1416 63.1458 72.027 58.6941 69.4001 56.0055C66.7575 53.3084 62.5079 53.261 59.8152 55.9008C57.1196 58.5319 56.8904 62.9679 59.5215 65.665C62.157 68.3607 66.7733 68.4167 69.4488 65.7855Z" fill="#C00C0F"/>
<path d="M97.3323 94.3695C100.025 91.7384 100.081 87.466 97.4626 84.7746C94.82 82.0703 90.3827 81.8493 87.69 84.4805C84.9987 87.1116 84.95 91.7384 87.5769 94.4341C90.2023 97.1312 94.6395 97.0093 97.3323 94.3695Z" fill="#C00C0F"/>
<path d="M73.4617 78.4105C70.0113 74.7578 70.3278 69.2516 73.9831 65.8027C77.4421 62.5188 82.9407 62.4858 86.3997 66.1313C89.6625 69.5945 89.5164 75.2829 86.0574 78.5582C82.4193 82.0215 76.7574 81.8665 73.4617 78.4105ZM40.3254 109.885C36.8778 106.241 37.2044 100.734 40.6634 97.4569C44.3014 93.9936 49.6239 94.1314 53.0714 97.7768C56.3543 101.242 56.3872 106.756 52.7492 110.212C49.2816 113.506 43.6111 113.359 40.3254 109.885Z" fill="#C00C0F"/>
<path d="M114.442 56.9938C115.715 55.7844 117.852 55.849 119.223 57.2951C120.431 58.5791 120.365 60.7038 119.109 61.9133C117.648 63.312 115.519 63.2532 114.312 61.9706C112.924 60.5145 112.99 58.3826 114.442 56.9938Z" fill="#C00C0F"/>
<path d="M92.3836 33.4443C93.6554 32.2349 95.7939 32.2836 97.0013 33.559C98.3878 35.0224 98.3233 37.1371 97.05 38.3651C95.5976 39.7539 93.4606 39.6879 92.0813 38.2331C90.8739 36.9405 90.9312 34.8258 92.3836 33.4443Z" fill="#C00C0F"/>
<path d="M103.532 25.3712C104.567 24.3827 106.305 24.4315 107.292 25.4687C108.417 26.6623 108.377 28.3868 107.324 29.3753C106.15 30.5115 104.42 30.4541 103.287 29.2691C102.3 28.2232 102.349 26.4988 103.532 25.3712Z" fill="#C00C0F"/>
<path d="M124.318 46.7147C125.363 45.7334 127.093 45.7764 128.08 46.8122C129.197 48.0059 129.157 49.7461 128.12 50.7274C126.928 51.8536 125.199 51.8062 124.074 50.6212C123.094 49.5825 123.128 47.8423 124.318 46.7147Z" fill="#C00C0F"/>
<path d="M120.021 30.6506C121.295 29.4326 123.423 29.49 124.632 30.7654C125.848 32.0408 125.782 34.1813 124.509 35.3907C123.056 36.7637 120.919 36.7149 119.712 35.4395C118.512 34.1712 118.569 32.0307 120.021 30.6506Z" fill="#C00C0F"/>
<path d="M101.765 67.9345C103.935 65.8686 107.312 66.1369 109.213 68.1469C111.275 70.329 111.195 73.5153 109.008 75.5984C107.008 77.5022 103.819 77.4133 101.739 75.2297C99.8398 73.2298 99.7581 69.8383 101.765 67.9345Z" fill="#C00C0F"/>
<path d="M78.1092 42.9558C80.2878 40.8899 83.4775 40.9617 85.5572 43.1524C87.4579 45.1623 87.5395 48.5295 85.3524 50.6126C83.3471 52.5164 79.9855 52.2553 78.0849 50.2453C76.0209 48.0546 76.1026 44.8596 78.1092 42.9558Z" fill="#C00C0F"/>
<path d="M106.252 40.25C108.268 38.3391 111.638 38.616 113.547 40.6187C115.618 42.8008 115.521 46.003 113.521 47.9082C111.327 49.9827 108.137 49.9095 106.073 47.7117C104.173 45.7089 104.084 42.326 106.252 40.25Z" fill="#C00C0F"/>
<path d="M90.841 52.8175C93.5738 50.2366 98.0039 50.5221 100.598 53.2522C103.185 55.9981 103.061 60.2547 100.336 62.8457C97.6029 65.4453 93.1728 65.5084 90.5789 62.7711C87.995 60.0324 88.1168 55.4171 90.841 52.8175Z" fill="#C00C0F"/>
<path d="M32.0908 138.142C30.8504 139.4 30.8705 141.532 32.2913 142.938C33.5475 144.181 35.6773 144.172 36.9134 142.914C38.3285 141.484 38.3127 139.352 37.0638 138.116C35.6358 136.71 33.5145 136.71 32.0908 138.142Z" fill="#C00C0F"/>
<path d="M9.02872 115.572C7.80554 116.823 7.80554 118.955 9.06023 120.191C10.4925 121.611 12.6123 121.595 13.857 120.344C15.2678 118.915 15.2435 116.782 13.8284 115.36C12.5737 114.118 10.4453 114.144 9.02872 115.572Z" fill="#C00C0F"/>
<path d="M0.747152 126.554C-0.255459 127.584 -0.248298 129.307 0.76434 130.32C1.93453 131.482 3.67191 131.465 4.67166 130.444C5.83469 129.283 5.8175 127.544 4.64731 126.391C3.63181 125.387 1.89729 125.395 0.747152 126.554Z" fill="#C00C0F"/>
<path d="M21.6278 147.825C20.6238 148.846 20.6281 150.571 21.6479 151.583C22.8109 152.736 24.544 152.728 25.5509 151.714C26.6968 150.538 26.6968 148.806 25.5223 147.663C24.5082 146.647 22.778 146.647 21.6278 147.825Z" fill="#C00C0F"/>
<path d="M5.67683 143.182C4.44934 144.433 4.44935 146.565 5.70547 147.815C6.94871 149.04 9.08571 149.033 10.3261 147.775C11.7168 146.353 11.7126 144.212 10.4736 142.97C9.22034 141.745 7.08765 141.762 5.67683 143.182Z" fill="#C00C0F"/>
<path d="M43.2798 125.672C41.1628 127.813 41.359 131.188 43.3213 133.132C45.4698 135.256 48.6566 135.24 50.7693 133.099C52.7186 131.122 52.6986 127.929 50.5573 125.811C48.5979 123.857 45.2177 123.702 43.2798 125.672Z" fill="#C00C0F"/>
<path d="M18.8295 101.461C16.7126 103.61 16.7369 106.805 18.8696 108.921C20.8433 110.865 24.2049 111.022 26.3176 108.881C28.2584 106.911 28.0793 103.536 26.1128 101.592C23.9729 99.4754 20.7703 99.4912 18.8295 101.461Z" fill="#C00C0F"/>
<path d="M15.5544 129.602C13.6007 131.572 13.8041 134.953 15.7635 136.898C17.9048 139.016 21.0946 138.999 23.0411 137.039C25.1652 134.873 25.1494 131.686 23.0038 129.562C21.0401 127.625 17.6628 127.461 15.5544 129.602Z" fill="#C00C0F"/>
<path d="M28.4088 114.42C25.7662 117.109 25.9696 121.555 28.6452 124.2C31.325 126.863 35.5875 126.823 38.223 124.143C40.8742 121.463 41.0332 117.018 38.3576 114.37C35.6735 111.716 31.06 111.749 28.4088 114.42Z" fill="#C00C0F"/>
<path d="M158.594 105.285H189.404V118.01H138.438V107.266L167.197 78.2016C171.848 73.5474 173.448 69.4871 173.448 65.8731C173.448 60.2782 169.897 56.8122 163.595 56.8122C157.644 56.8122 153.342 59.8325 153.342 68.3488V73.6466L138.988 72.2107V68.6458C138.988 53.5444 148.691 45.3749 163.496 45.3749C177.4 45.3749 187.653 52.8513 187.653 65.9723C187.653 73.3498 184.452 78.8459 178.15 85.3321L158.594 105.285ZM235.219 119C214.362 119 199.007 104.74 199.007 82.4099C199.007 59.7824 214.712 45.4729 235.969 45.4729C249.924 45.4729 261.477 51.5632 267.779 62.3073L254.625 69.2392C250.823 61.9113 244.021 58.3957 235.969 58.3957C223.465 58.3957 214.062 66.912 214.062 82.0631C214.062 96.6696 222.865 106.077 236.519 106.077C245.772 106.077 254.275 101.522 256.326 91.0742H236.569V79.1417H270.53V118.009H258.727V108.107C254.075 114.89 246.272 119 235.219 119ZM307.442 45.5221C322.396 45.5221 334 56.217 334 70.4271C334 76.022 332.149 81.6665 327.548 87.8556L305.041 118.009H288.636L307.341 93.7973C306.241 93.9459 305.191 93.9954 304.09 93.9954C291.836 93.9954 280.733 84.786 280.683 70.4766C280.583 55.8208 293.087 45.5221 307.442 45.5221ZM320.446 70.9726C320.596 63.4962 315.695 58.347 307.842 58.347C300.24 58.347 294.788 63.447 294.738 70.8241C294.638 78.2508 299.84 83.6479 307.692 83.6479C315.344 83.6479 320.346 78.1022 320.446 70.9726Z" fill="#C00C0F"/>
<path d="M242.75 27.3657C242.671 27.3657 242.632 27.3263 242.632 27.2476V26.0907C242.632 26.012 242.671 25.9727 242.75 25.9727H243.931C244.009 25.9727 244.049 26.012 244.049 26.0907V27.2476C244.049 27.3263 244.009 27.3657 243.931 27.3657H242.75ZM244.568 27.3657C244.489 27.3657 244.45 27.3263 244.45 27.2476V26.0907C244.45 26.012 244.489 25.9727 244.568 25.9727H245.76C245.839 25.9727 245.878 26.012 245.878 26.0907V27.2476C245.878 27.3263 245.839 27.3657 245.76 27.3657H244.568ZM245.146 28.8295V28.3219C245.146 28.2432 245.186 28.2038 245.265 28.2038H246.705C246.783 28.2038 246.823 28.2432 246.823 28.3219V31.946C246.823 32.182 246.866 32.3473 246.953 32.4418C247.047 32.5283 247.193 32.5716 247.389 32.5716H247.755C248.07 32.5716 248.228 32.8116 248.228 33.2917C248.228 33.5672 248.188 33.756 248.109 33.8583C248.039 33.9528 247.921 34 247.755 34H246.528C246.142 34 245.839 33.941 245.619 33.8229C245.406 33.697 245.265 33.4648 245.194 33.1264C245.021 33.2681 244.82 33.3743 244.592 33.4452C244.363 33.516 244.123 33.5514 243.872 33.5514C243.565 33.5514 243.269 33.5081 242.986 33.4216C242.711 33.335 242.467 33.2012 242.254 33.0202C242.042 32.8392 241.873 32.6031 241.747 32.3119C241.629 32.0207 241.57 31.6666 241.57 31.2495C241.57 30.7773 241.636 30.3877 241.77 30.0808C241.912 29.766 242.093 29.5181 242.313 29.3371C242.542 29.1482 242.797 29.0183 243.081 28.9475C243.372 28.8688 243.667 28.8295 243.966 28.8295H245.146ZM244.167 32.123C244.466 32.123 244.702 32.0404 244.875 31.8751C245.056 31.702 245.146 31.4344 245.146 31.0724V30.2579H244.202C243.903 30.2579 243.663 30.3287 243.482 30.4703C243.301 30.612 243.21 30.8717 243.21 31.2495C243.21 31.5721 243.301 31.8004 243.482 31.9341C243.663 32.0601 243.891 32.123 244.167 32.123ZM248.362 32.5716C248.503 32.5716 248.613 32.5401 248.692 32.4772C248.771 32.4142 248.83 32.3276 248.869 32.2175C248.916 32.1073 248.944 31.9814 248.952 31.8397C248.96 31.6902 248.964 31.5328 248.964 31.3675V26.0907C248.979 26.012 249.019 25.9727 249.082 25.9727H250.51C250.589 25.9727 250.628 26.012 250.628 26.0907V29.4079C250.982 29.2505 251.372 29.1167 251.797 29.0065C252.222 28.8885 252.666 28.8295 253.131 28.8295C254.083 28.8295 254.811 29.0616 255.315 29.526C255.818 29.9824 256.07 30.6986 256.07 31.6744C256.07 31.7217 256.066 31.7689 256.058 31.8161C256.058 31.8554 256.058 31.8948 256.058 31.9341C256.074 32.1309 256.157 32.2883 256.306 32.4063C256.464 32.5165 256.68 32.5716 256.956 32.5716H257.227C257.384 32.5716 257.503 32.6267 257.581 32.7369C257.66 32.8471 257.699 33.0281 257.699 33.2799C257.699 33.76 257.542 34 257.227 34C256.889 34 256.594 33.9528 256.342 33.8583C256.098 33.756 255.901 33.5553 255.751 33.2563C255.57 33.5632 255.315 33.7639 254.984 33.8583C254.654 33.9528 254.209 34 253.65 34H250.829C250.514 34 250.29 33.9174 250.156 33.7521C250.069 33.8544 249.888 33.9213 249.613 33.9528C249.345 33.9843 249.066 34 248.775 34H247.854C247.697 34 247.579 33.9528 247.5 33.8583C247.421 33.756 247.382 33.5672 247.382 33.2917C247.382 32.9927 247.417 32.7998 247.488 32.7133C247.559 32.6188 247.681 32.5716 247.854 32.5716H248.362ZM252.824 30.2579C252.423 30.2579 252.029 30.3129 251.643 30.4231C251.266 30.5333 250.927 30.6553 250.628 30.7891V32.1112C250.628 32.2765 250.616 32.43 250.593 32.5716H252.93C253.221 32.5716 253.457 32.5637 253.638 32.548C253.827 32.5323 253.973 32.4929 254.075 32.43C254.178 32.367 254.244 32.2686 254.276 32.1348C254.315 32.001 254.335 31.8161 254.335 31.58C254.335 31.3675 254.311 31.1786 254.264 31.0134C254.217 30.8481 254.134 30.7104 254.016 30.6002C253.906 30.4821 253.753 30.3956 253.556 30.3405C253.367 30.2854 253.123 30.2579 252.824 30.2579ZM261.276 34C260.969 34 260.717 33.9449 260.52 33.8347C260.323 33.7167 260.174 33.5632 260.071 33.3743C259.961 33.6262 259.796 33.7954 259.576 33.882C259.355 33.9607 259.044 34 258.643 34H257.226C257.069 34 256.951 33.9567 256.872 33.8701C256.794 33.7757 256.754 33.5986 256.754 33.3389C256.754 33.0635 256.794 32.8667 256.872 32.7487C256.943 32.6306 257.061 32.5716 257.226 32.5716H258.017C258.246 32.5716 258.391 32.5165 258.454 32.4063C258.517 32.2883 258.549 32.0758 258.549 31.7689V29.9981C258.549 29.9194 258.588 29.8801 258.667 29.8801H260.107C260.186 29.8801 260.225 29.9194 260.225 29.9981V31.9341C260.225 32.186 260.304 32.3552 260.461 32.4418C260.618 32.5283 260.792 32.5716 260.98 32.5716C261.13 32.5716 261.248 32.5559 261.335 32.5244C261.429 32.4929 261.496 32.4457 261.535 32.3827C261.575 32.3198 261.598 32.2371 261.606 32.1348C261.622 32.0247 261.63 31.8909 261.63 31.7335V29.9981C261.63 29.9194 261.669 29.8801 261.748 29.8801H263.188C263.267 29.8801 263.306 29.9194 263.306 29.9981V31.9223C263.306 32.1899 263.385 32.367 263.542 32.4536C263.707 32.5323 263.892 32.5716 264.097 32.5716C264.246 32.5716 264.361 32.5559 264.439 32.5244C264.518 32.4929 264.577 32.4457 264.616 32.3827C264.656 32.3119 264.679 32.2253 264.687 32.123C264.695 32.0128 264.699 31.8791 264.699 31.7217V29.1482C264.699 29.0695 264.738 29.0301 264.817 29.0301H266.257C266.336 29.0301 266.375 29.0695 266.375 29.1482V32.5126C266.375 33.0241 266.269 33.4019 266.056 33.6459C265.844 33.882 265.49 34 264.994 34H264.345C264.038 34 263.786 33.9449 263.589 33.8347C263.4 33.7167 263.255 33.5632 263.152 33.3743C263.042 33.6183 262.873 33.7836 262.645 33.8701C262.425 33.9567 262.122 34 261.736 34H261.276ZM269.433 33.882C269.433 33.9607 269.393 34 269.315 34H267.886C267.808 34 267.768 33.9607 267.768 33.882V26.0907C267.768 26.012 267.808 25.9727 267.886 25.9727H269.315C269.393 25.9727 269.433 26.012 269.433 26.0907V33.882ZM271.791 36.42C271.712 36.42 271.673 36.3806 271.673 36.302V35.1097C271.673 35.031 271.712 34.9916 271.791 34.9916H273.148C273.314 34.9916 273.459 34.9759 273.585 34.9444C273.719 34.9208 273.829 34.8736 273.916 34.8027C274.002 34.7319 274.069 34.6296 274.116 34.4958C274.163 34.3699 274.187 34.2046 274.187 34H273.054C272.283 34 271.688 33.8151 271.271 33.4452C270.862 33.0753 270.657 32.4418 270.657 31.5446C270.657 31.0409 270.728 30.6159 270.87 30.2697C271.019 29.9234 271.212 29.644 271.448 29.4315C271.692 29.219 271.968 29.0656 272.275 28.9711C272.59 28.8767 272.912 28.8295 273.243 28.8295C273.589 28.8295 273.92 28.8727 274.234 28.9593C274.549 29.0459 274.825 29.1915 275.061 29.3961C275.297 29.5928 275.482 29.8644 275.615 30.2106C275.757 30.549 275.828 30.9701 275.828 31.4738V32.5716H276.631C276.946 32.5716 277.103 32.8077 277.103 33.2799C277.103 33.579 277.064 33.7757 276.985 33.8701C276.914 33.9567 276.796 34 276.631 34H275.828V34.2243C275.828 34.9641 275.639 35.515 275.261 35.877C274.891 36.239 274.309 36.42 273.514 36.42H271.791ZM273.255 30.2579C272.94 30.2579 272.696 30.368 272.523 30.5884C272.357 30.8087 272.275 31.1078 272.275 31.4856C272.275 31.9184 272.365 32.2096 272.546 32.3591C272.735 32.5008 272.979 32.5716 273.278 32.5716H274.187V31.4265C274.187 30.6474 273.876 30.2579 273.255 30.2579ZM277.549 36.4082C277.47 36.4082 277.431 36.3688 277.431 36.2901V35.1333C277.431 35.0546 277.47 35.0152 277.549 35.0152H279.013C279.092 35.0152 279.131 35.0546 279.131 35.1333V36.2901C279.131 36.3688 279.092 36.4082 279.013 36.4082H277.549ZM276.628 34C276.471 34 276.353 33.9725 276.274 33.9174C276.196 33.8623 276.156 33.7521 276.156 33.5868C276.156 33.4924 276.168 33.3861 276.192 33.2681C276.207 33.15 276.235 33.0399 276.274 32.9376C276.306 32.8353 276.353 32.7487 276.416 32.6779C276.471 32.607 276.542 32.5716 276.628 32.5716H277.042C277.238 32.5716 277.38 32.5283 277.467 32.4418C277.561 32.3473 277.608 32.182 277.608 31.946V29.1482C277.608 29.0695 277.648 29.0301 277.726 29.0301H279.166C279.245 29.0301 279.284 29.0695 279.284 29.1482V32.5126C279.284 33.0241 279.178 33.4019 278.966 33.6459C278.753 33.882 278.399 34 277.903 34H276.628ZM287.046 34.0826C286.692 34.0826 286.365 34.0393 286.066 33.9528C285.775 33.8662 285.519 33.7206 285.299 33.516C285.244 33.6026 285.185 33.6695 285.122 33.7167C285.059 33.7639 284.996 33.819 284.933 33.882C284.878 33.937 284.831 34.0039 284.791 34.0826C284.752 34.1692 284.732 34.2833 284.732 34.425V36.42H283.056V34.1771C283.056 33.9095 283.087 33.6931 283.15 33.5278C283.213 33.3547 283.292 33.213 283.387 33.1028C283.489 32.9848 283.595 32.8903 283.705 32.8195C283.823 32.7408 283.933 32.666 284.036 32.5952C284.146 32.5165 284.236 32.4339 284.307 32.3473C284.386 32.2529 284.433 32.1309 284.449 31.9814C284.441 31.9105 284.437 31.8358 284.437 31.7571C284.437 31.6784 284.437 31.5957 284.437 31.5092C284.437 30.9898 284.508 30.5608 284.65 30.2224C284.791 29.8762 284.98 29.6007 285.216 29.3961C285.46 29.1915 285.74 29.0459 286.054 28.9593C286.369 28.8727 286.7 28.8295 287.046 28.8295C287.392 28.8295 287.723 28.8727 288.038 28.9593C288.352 29.0459 288.628 29.1915 288.864 29.3961C289.108 29.6007 289.301 29.8762 289.442 30.2224C289.584 30.5608 289.655 30.9898 289.655 31.5092C289.655 31.5643 289.651 31.6194 289.643 31.6744C289.643 31.7217 289.643 31.7689 289.643 31.8161C289.659 32.0758 289.734 32.2686 289.867 32.3945C290.001 32.5126 290.17 32.5716 290.375 32.5716H290.706C290.863 32.5716 290.981 32.6267 291.06 32.7369C291.138 32.8471 291.178 33.0281 291.178 33.2799C291.178 33.76 291.02 34 290.706 34C290.564 34 290.418 33.9961 290.269 33.9882C290.127 33.9725 289.985 33.941 289.844 33.8938C289.71 33.8465 289.58 33.7796 289.454 33.6931C289.328 33.5986 289.214 33.4727 289.112 33.3153C288.876 33.5986 288.577 33.7993 288.215 33.9174C287.861 34.0275 287.471 34.0826 287.046 34.0826ZM287.046 30.2579C286.401 30.2579 286.078 30.6553 286.078 31.4501C286.078 31.8987 286.157 32.2135 286.314 32.3945C286.479 32.5677 286.723 32.6542 287.046 32.6542C287.377 32.6542 287.621 32.5677 287.778 32.3945C287.935 32.2135 288.014 31.8987 288.014 31.4501C288.014 30.6553 287.691 30.2579 287.046 30.2579ZM291.295 36.42C291.216 36.42 291.177 36.3806 291.177 36.302V35.1451C291.177 35.0664 291.216 35.027 291.295 35.027H292.475C292.554 35.027 292.593 35.0664 292.593 35.1451V36.302C292.593 36.3806 292.554 36.42 292.475 36.42H291.295ZM293.113 36.42C293.034 36.42 292.994 36.3806 292.994 36.302V35.1451C292.994 35.0664 293.034 35.027 293.113 35.027H294.305C294.384 35.027 294.423 35.0664 294.423 35.1451V36.302C294.423 36.3806 294.384 36.42 294.305 36.42H293.113ZM292.038 29.1482C292.038 29.0695 292.078 29.0301 292.156 29.0301H293.585C293.663 29.0301 293.703 29.0695 293.703 29.1482V31.9341C293.719 32.1309 293.801 32.2883 293.951 32.4063C294.108 32.5165 294.324 32.5716 294.6 32.5716H294.871C295.029 32.5716 295.147 32.6267 295.226 32.7369C295.304 32.8471 295.344 33.0281 295.344 33.2799C295.344 33.76 295.186 34 294.871 34C294.572 34 294.313 33.9646 294.092 33.8938C293.872 33.8229 293.687 33.6616 293.538 33.4098C293.412 33.6616 293.223 33.8229 292.971 33.8938C292.727 33.9646 292.388 34 291.956 34H290.74C290.582 34 290.464 33.9528 290.386 33.8583C290.307 33.756 290.268 33.5711 290.268 33.3035C290.268 33.0359 290.307 32.8471 290.386 32.7369C290.456 32.6267 290.574 32.5716 290.74 32.5716H291.472C291.723 32.5716 291.881 32.5008 291.944 32.3591C292.007 32.2096 292.038 31.9578 292.038 31.6036V29.1482ZM298.537 34.0826C298.12 34.0826 297.735 34.0315 297.38 33.9292C297.034 33.819 296.743 33.6301 296.507 33.3625C296.42 33.5042 296.306 33.6183 296.165 33.7049C296.023 33.7914 295.873 33.8583 295.716 33.9056C295.566 33.9449 295.417 33.9725 295.267 33.9882C295.118 33.9961 294.984 34 294.866 34C294.709 34 294.591 33.9488 294.512 33.8465C294.433 33.7442 294.394 33.5632 294.394 33.3035C294.394 33.0359 294.429 32.8471 294.5 32.7369C294.571 32.6267 294.693 32.5716 294.866 32.5716H295.208C295.389 32.5716 295.551 32.4968 295.692 32.3473C295.842 32.1978 295.925 31.9184 295.94 31.5092V31.2731C295.94 30.4861 296.165 29.884 296.613 29.4669C297.062 29.042 297.703 28.8295 298.537 28.8295C299.332 28.8295 299.966 29.0538 300.438 29.5023C300.91 29.9431 301.146 30.612 301.146 31.5092C301.146 31.5643 301.142 31.6194 301.134 31.6744C301.134 31.7217 301.134 31.7689 301.134 31.8161C301.15 32.0758 301.225 32.2686 301.359 32.3945C301.492 32.5126 301.662 32.5716 301.866 32.5716H302.209C302.366 32.5716 302.484 32.6267 302.563 32.7369C302.641 32.8471 302.681 33.0281 302.681 33.2799C302.681 33.76 302.523 34 302.209 34C302.067 34 301.921 33.9961 301.772 33.9882C301.622 33.9725 301.477 33.941 301.335 33.8938C301.193 33.8465 301.06 33.7796 300.934 33.6931C300.808 33.5986 300.698 33.4727 300.603 33.3153C300.367 33.5986 300.068 33.7993 299.706 33.9174C299.352 34.0275 298.962 34.0826 298.537 34.0826ZM298.537 30.2579C297.892 30.2579 297.569 30.6553 297.569 31.4501C297.569 31.8987 297.648 32.2135 297.805 32.3945C297.971 32.5677 298.215 32.6542 298.537 32.6542C298.868 32.6542 299.112 32.5677 299.269 32.3945C299.427 32.2135 299.505 31.8987 299.505 31.4501C299.505 30.6553 299.183 30.2579 298.537 30.2579ZM303.154 29.0538C303.154 28.9751 303.193 28.9357 303.272 28.9357H304.701C304.779 28.9357 304.819 28.9751 304.819 29.0538V29.4079C305.181 29.2505 305.574 29.1167 305.999 29.0065C306.424 28.8885 306.869 28.8295 307.333 28.8295C308.293 28.8295 309.021 29.0577 309.517 29.5141C310.013 29.9706 310.261 30.6907 310.261 31.6744C310.261 31.7217 310.261 31.7689 310.261 31.8161C310.261 31.8633 310.257 31.9066 310.249 31.946C310.265 32.1348 310.351 32.2883 310.509 32.4063C310.666 32.5165 310.882 32.5716 311.158 32.5716H311.418C311.575 32.5716 311.693 32.6267 311.772 32.7369C311.85 32.8471 311.89 33.0281 311.89 33.2799C311.89 33.76 311.732 34 311.418 34C311.079 34 310.784 33.9528 310.532 33.8583C310.288 33.756 310.095 33.5553 309.954 33.2563C309.781 33.5553 309.529 33.756 309.198 33.8583C308.876 33.9528 308.443 34 307.9 34H305.621C305.503 34 305.377 34 305.244 34C305.118 33.9921 304.996 33.9803 304.878 33.9646C304.76 33.9488 304.653 33.9252 304.559 33.8938C304.464 33.8623 304.398 33.8151 304.358 33.7521C304.224 33.8623 304.071 33.9331 303.898 33.9646C303.725 33.9882 303.508 34 303.249 34H302.198C302.041 34 301.922 33.9528 301.844 33.8583C301.765 33.756 301.726 33.5672 301.726 33.2917C301.726 32.9927 301.761 32.7998 301.832 32.7133C301.903 32.6188 302.025 32.5716 302.198 32.5716H302.67C302.788 32.5716 302.879 32.548 302.942 32.5008C303.012 32.4457 303.06 32.3749 303.083 32.2883C303.115 32.2017 303.134 32.0955 303.142 31.9696C303.15 31.8436 303.154 31.7059 303.154 31.5564V29.0538ZM307.014 30.2579C306.621 30.2579 306.231 30.3129 305.846 30.4231C305.468 30.5333 305.126 30.6553 304.819 30.7891V32.1112C304.819 32.1978 304.815 32.2804 304.807 32.3591C304.807 32.43 304.803 32.5008 304.795 32.5716H307.132C307.424 32.5716 307.66 32.5637 307.841 32.548C308.03 32.5323 308.175 32.4929 308.277 32.43C308.38 32.367 308.447 32.2686 308.478 32.1348C308.517 32.001 308.537 31.8161 308.537 31.58C308.537 31.3675 308.514 31.1786 308.466 31.0134C308.419 30.8481 308.336 30.7104 308.218 30.6002C308.108 30.4821 307.955 30.3956 307.758 30.3405C307.561 30.2854 307.313 30.2579 307.014 30.2579ZM312.07 27.8379C311.991 27.8379 311.952 27.7985 311.952 27.7198V26.5629C311.952 26.4842 311.991 26.4449 312.07 26.4449H313.25C313.329 26.4449 313.368 26.4842 313.368 26.5629V27.7198C313.368 27.7985 313.329 27.8379 313.25 27.8379H312.07ZM313.888 27.8379C313.809 27.8379 313.77 27.7985 313.77 27.7198V26.5629C313.77 26.4842 313.809 26.4449 313.888 26.4449H315.08C315.159 26.4449 315.198 26.4842 315.198 26.5629V27.7198C315.198 27.7985 315.159 27.8379 315.08 27.8379H313.888ZM312.754 29.1482C312.754 29.0695 312.794 29.0301 312.873 29.0301H314.301C314.38 29.0301 314.419 29.0695 314.419 29.1482V31.9341C314.435 32.1309 314.517 32.2883 314.667 32.4063C314.824 32.5165 315.041 32.5716 315.316 32.5716H315.588C315.745 32.5716 315.863 32.6267 315.942 32.7369C316.02 32.8471 316.06 33.0281 316.06 33.2799C316.06 33.76 315.902 34 315.588 34C315.289 34 315.029 33.9646 314.809 33.8938C314.588 33.8229 314.403 33.6616 314.254 33.4098C314.128 33.6616 313.939 33.8229 313.687 33.8938C313.443 33.9646 313.105 34 312.672 34H311.456C311.299 34 311.18 33.9528 311.102 33.8583C311.023 33.756 310.984 33.5711 310.984 33.3035C310.984 33.0359 311.023 32.8471 311.102 32.7369C311.173 32.6267 311.291 32.5716 311.456 32.5716H312.188C312.44 32.5716 312.597 32.5008 312.66 32.3591C312.723 32.2096 312.754 31.9578 312.754 31.6036V29.1482ZM315.582 34C315.425 34 315.307 33.9725 315.228 33.9174C315.149 33.8623 315.11 33.7521 315.11 33.5868C315.11 33.4924 315.122 33.3861 315.145 33.2681C315.161 33.15 315.189 33.0399 315.228 32.9376C315.26 32.8353 315.307 32.7487 315.37 32.6779C315.425 32.607 315.496 32.5716 315.582 32.5716H315.995C316.192 32.5716 316.334 32.5283 316.42 32.4418C316.515 32.3473 316.562 32.182 316.562 31.946V26.0907C316.562 26.012 316.601 25.9727 316.68 25.9727H318.12C318.199 25.9727 318.238 26.012 318.238 26.0907V32.5126C318.238 33.0241 318.132 33.4019 317.92 33.6459C317.707 33.882 317.353 34 316.857 34H315.582ZM321.321 33.882C321.321 33.9607 321.282 34 321.203 34H319.775C319.696 34 319.657 33.9607 319.657 33.882V26.0907C319.657 26.012 319.696 25.9727 319.775 25.9727H321.203C321.282 25.9727 321.321 26.012 321.321 26.0907V33.882ZM329.078 34.0826C328.724 34.0826 328.397 34.0393 328.098 33.9528C327.807 33.8662 327.551 33.7206 327.331 33.516C327.276 33.6026 327.217 33.6695 327.154 33.7167C327.091 33.7639 327.028 33.819 326.965 33.882C326.91 33.937 326.862 34.0039 326.823 34.0826C326.784 34.1692 326.764 34.2833 326.764 34.425V36.42H325.088V34.1771C325.088 33.9095 325.119 33.6931 325.182 33.5278C325.245 33.3547 325.324 33.213 325.418 33.1028C325.521 32.9848 325.627 32.8903 325.737 32.8195C325.855 32.7408 325.965 32.666 326.068 32.5952C326.178 32.5165 326.268 32.4339 326.339 32.3473C326.418 32.2529 326.465 32.1309 326.481 31.9814C326.473 31.9105 326.469 31.8358 326.469 31.7571C326.469 31.6784 326.469 31.5957 326.469 31.5092C326.469 30.9898 326.54 30.5608 326.681 30.2224C326.823 29.8762 327.012 29.6007 327.248 29.3961C327.492 29.1915 327.771 29.0459 328.086 28.9593C328.401 28.8727 328.732 28.8295 329.078 28.8295C329.424 28.8295 329.755 28.8727 330.069 28.9593C330.384 29.0459 330.66 29.1915 330.896 29.3961C331.14 29.6007 331.333 29.8762 331.474 30.2224C331.616 30.5608 331.687 30.9898 331.687 31.5092C331.687 31.5643 331.683 31.6194 331.675 31.6744C331.675 31.7217 331.675 31.7689 331.675 31.8161C331.691 32.0758 331.765 32.2686 331.899 32.3945C332.033 32.5126 332.202 32.5716 332.407 32.5716H332.737C332.895 32.5716 333.013 32.6267 333.091 32.7369C333.17 32.8471 333.21 33.0281 333.21 33.2799C333.21 33.76 333.052 34 332.737 34C332.596 34 332.45 33.9961 332.301 33.9882C332.159 33.9725 332.017 33.941 331.876 33.8938C331.742 33.8465 331.612 33.7796 331.486 33.6931C331.36 33.5986 331.246 33.4727 331.144 33.3153C330.908 33.5986 330.609 33.7993 330.247 33.9174C329.892 34.0275 329.503 34.0826 329.078 34.0826ZM329.078 30.2579C328.432 30.2579 328.11 30.6553 328.11 31.4501C328.11 31.8987 328.189 32.2135 328.346 32.3945C328.511 32.5677 328.755 32.6542 329.078 32.6542C329.408 32.6542 329.652 32.5677 329.81 32.3945C329.967 32.2135 330.046 31.8987 330.046 31.4501C330.046 30.6553 329.723 30.2579 329.078 30.2579ZM333.279 27.8379C333.2 27.8379 333.161 27.7985 333.161 27.7198V26.5629C333.161 26.4842 333.2 26.4449 333.279 26.4449H334.46C334.538 26.4449 334.578 26.4842 334.578 26.5629V27.7198C334.578 27.7985 334.538 27.8379 334.46 27.8379H333.279ZM335.097 27.8379C335.018 27.8379 334.979 27.7985 334.979 27.7198V26.5629C334.979 26.4842 335.018 26.4449 335.097 26.4449H336.289C336.368 26.4449 336.407 26.4842 336.407 26.5629V27.7198C336.407 27.7985 336.368 27.8379 336.289 27.8379H335.097ZM332.736 34C332.579 34 332.461 33.9528 332.382 33.8583C332.303 33.756 332.264 33.579 332.264 33.3271C332.264 32.8234 332.421 32.5716 332.736 32.5716H333.468C333.665 32.5716 333.806 32.5283 333.893 32.4418C333.987 32.3473 334.035 32.182 334.035 31.946V29.1482C334.035 29.0695 334.074 29.0301 334.153 29.0301H335.581C335.66 29.0301 335.699 29.0695 335.699 29.1482V32.5126C335.699 33.0241 335.593 33.4019 335.38 33.6459C335.168 33.882 334.814 34 334.318 34H332.736Z" fill="black"/>
<path d="M189.625 147.165C189.501 147.165 189.419 147.096 189.377 146.958L187.663 141.153H187.622L185.866 146.958C185.824 147.096 185.742 147.165 185.618 147.165H183.572C183.448 147.165 183.366 147.096 183.325 146.958L180.122 137.373C180.081 137.235 180.129 137.166 180.267 137.166H182.808C182.96 137.166 183.056 137.235 183.097 137.373L184.75 143.322H184.791L186.506 137.373C186.547 137.235 186.644 137.166 186.795 137.166H188.53C188.668 137.166 188.758 137.235 188.799 137.373L190.555 143.322H190.596L192.166 137.373C192.208 137.235 192.297 137.166 192.435 137.166H194.976C195.127 137.166 195.183 137.235 195.141 137.373L191.939 146.958C191.898 147.096 191.815 147.165 191.691 147.165H189.625ZM205.382 147.165C205.258 147.165 205.175 147.096 205.134 146.958L203.419 141.153H203.378L201.622 146.958C201.58 147.096 201.498 147.165 201.374 147.165H199.329C199.205 147.165 199.122 147.096 199.081 146.958L195.879 137.373C195.837 137.235 195.886 137.166 196.023 137.166H198.564C198.716 137.166 198.812 137.235 198.853 137.373L200.506 143.322H200.547L202.262 137.373C202.303 137.235 202.4 137.166 202.551 137.166H204.287C204.424 137.166 204.514 137.235 204.555 137.373L206.311 143.322H206.353L207.923 137.373C207.964 137.235 208.053 137.166 208.191 137.166H210.732C210.884 137.166 210.939 137.235 210.897 137.373L207.695 146.958C207.654 147.096 207.571 147.165 207.447 147.165H205.382ZM221.138 147.165C221.014 147.165 220.931 147.096 220.89 146.958L219.175 141.153H219.134L217.378 146.958C217.337 147.096 217.254 147.165 217.13 147.165H215.085C214.961 147.165 214.878 147.096 214.837 146.958L211.635 137.373C211.593 137.235 211.642 137.166 211.779 137.166H214.32C214.472 137.166 214.568 137.235 214.61 137.373L216.262 143.322H216.304L218.018 137.373C218.06 137.235 218.156 137.166 218.307 137.166H220.043C220.181 137.166 220.27 137.235 220.311 137.373L222.067 143.322H222.109L223.679 137.373C223.72 137.235 223.81 137.166 223.947 137.166H226.488C226.64 137.166 226.695 137.235 226.654 137.373L223.451 146.958C223.41 147.096 223.328 147.165 223.204 147.165H221.138ZM228.259 144.479C228.259 144.341 228.327 144.272 228.465 144.272H230.924C231.061 144.272 231.13 144.341 231.13 144.479V146.958C231.13 147.096 231.061 147.165 230.924 147.165H228.465C228.327 147.165 228.259 147.096 228.259 146.958V144.479ZM233.708 145.037C233.708 144.927 233.743 144.83 233.811 144.748L238.749 138.881C239.024 138.564 239.231 138.254 239.369 137.951C239.506 137.634 239.575 137.297 239.575 136.939C239.575 136.47 239.437 136.085 239.162 135.782C238.9 135.479 238.528 135.327 238.046 135.327C237.069 135.327 236.518 135.878 236.394 136.98C236.394 137.118 236.318 137.173 236.166 137.145L233.894 136.773C233.756 136.746 233.701 136.663 233.729 136.526C233.77 136.043 233.894 135.582 234.101 135.141C234.307 134.701 234.596 134.315 234.968 133.985C235.354 133.654 235.808 133.392 236.332 133.2C236.869 132.993 237.475 132.89 238.15 132.89C238.825 132.89 239.424 132.993 239.947 133.2C240.484 133.406 240.939 133.688 241.31 134.047C241.682 134.405 241.965 134.832 242.157 135.327C242.364 135.809 242.467 136.333 242.467 136.897C242.467 137.572 242.336 138.185 242.075 138.736C241.827 139.273 241.483 139.796 241.042 140.306L237.344 144.665V144.706H242.261C242.398 144.706 242.467 144.775 242.467 144.913V146.958C242.467 147.096 242.398 147.165 242.261 147.165H233.915C233.777 147.165 233.708 147.096 233.708 146.958V145.037ZM248.782 151.11C248.41 151.11 248.038 151.069 247.666 150.987C247.294 150.918 246.936 150.814 246.592 150.677C246.262 150.553 245.959 150.394 245.683 150.201C245.408 150.022 245.18 149.823 245.001 149.602C244.919 149.492 244.926 149.389 245.022 149.293L246.489 147.805C246.585 147.709 246.688 147.709 246.799 147.805C247.115 148.081 247.439 148.294 247.77 148.446C248.1 148.597 248.465 148.673 248.865 148.673C249.567 148.673 250.076 148.487 250.393 148.115C250.71 147.757 250.868 147.206 250.868 146.462V145.615H250.848C250.627 145.973 250.304 146.256 249.877 146.462C249.45 146.669 248.92 146.772 248.286 146.772C247.46 146.772 246.757 146.572 246.179 146.173C245.614 145.76 245.201 145.154 244.939 144.355C244.829 143.983 244.747 143.611 244.692 143.24C244.636 142.854 244.609 142.393 244.609 141.855C244.609 141.318 244.636 140.857 244.692 140.471C244.747 140.086 244.829 139.714 244.939 139.356C245.201 138.557 245.614 137.958 246.179 137.558C246.757 137.145 247.46 136.939 248.286 136.939C248.92 136.939 249.45 137.042 249.877 137.249C250.304 137.455 250.627 137.737 250.848 138.096H250.868V137.373C250.868 137.235 250.937 137.166 251.075 137.166H253.554C253.692 137.166 253.761 137.235 253.761 137.373V146.09C253.761 149.437 252.101 151.11 248.782 151.11ZM249.195 144.334C249.594 144.334 249.911 144.245 250.145 144.066C250.393 143.887 250.572 143.618 250.682 143.26C250.751 143.067 250.8 142.868 250.827 142.661C250.855 142.441 250.868 142.172 250.868 141.855C250.868 141.539 250.855 141.277 250.827 141.07C250.8 140.85 250.751 140.643 250.682 140.451C250.572 140.093 250.393 139.824 250.145 139.645C249.911 139.466 249.594 139.376 249.195 139.376C248.796 139.376 248.479 139.466 248.245 139.645C248.011 139.824 247.832 140.093 247.708 140.451C247.653 140.643 247.611 140.85 247.584 141.07C247.556 141.277 247.542 141.539 247.542 141.855C247.542 142.172 247.556 142.441 247.584 142.661C247.611 142.868 247.653 143.067 247.708 143.26C247.832 143.618 248.011 143.887 248.245 144.066C248.479 144.245 248.796 144.334 249.195 144.334ZM261.032 141.525L260.99 141.484C260.922 141.511 260.805 141.539 260.639 141.566C260.488 141.594 260.316 141.608 260.123 141.608C259.572 141.608 259.049 141.511 258.553 141.318C258.071 141.112 257.644 140.829 257.272 140.471C256.914 140.099 256.625 139.652 256.404 139.129C256.198 138.605 256.094 138.02 256.094 137.373C256.094 136.67 256.211 136.043 256.446 135.493C256.693 134.928 257.024 134.453 257.437 134.067C257.864 133.682 258.367 133.392 258.945 133.2C259.524 132.993 260.143 132.89 260.805 132.89C261.479 132.89 262.099 132.993 262.664 133.2C263.242 133.392 263.738 133.682 264.151 134.067C264.578 134.439 264.909 134.9 265.143 135.451C265.391 136.002 265.515 136.622 265.515 137.311C265.515 137.917 265.425 138.495 265.246 139.046C265.067 139.597 264.812 140.175 264.482 140.781L261.073 147.02C261.018 147.116 260.935 147.165 260.825 147.165H258.202C258.036 147.165 257.988 147.096 258.057 146.958L261.032 141.525ZM260.805 139.232C261.383 139.232 261.837 139.053 262.168 138.695C262.499 138.323 262.664 137.848 262.664 137.269C262.664 136.691 262.499 136.223 262.168 135.864C261.837 135.506 261.383 135.327 260.805 135.327C260.226 135.327 259.772 135.506 259.441 135.864C259.111 136.223 258.945 136.691 258.945 137.269C258.945 137.848 259.111 138.323 259.441 138.695C259.772 139.053 260.226 139.232 260.805 139.232ZM267.78 144.479C267.78 144.341 267.849 144.272 267.987 144.272H270.445C270.583 144.272 270.652 144.341 270.652 144.479V146.958C270.652 147.096 270.583 147.165 270.445 147.165H267.987C267.849 147.165 267.78 147.096 267.78 146.958V144.479ZM279.055 147.165C278.918 147.165 278.849 147.096 278.849 146.958V146.297H278.828C278.566 146.628 278.215 146.896 277.775 147.103C277.334 147.296 276.769 147.392 276.081 147.392C275.64 147.392 275.213 147.33 274.8 147.206C274.4 147.096 274.049 146.917 273.746 146.669C273.443 146.421 273.202 146.104 273.023 145.719C272.844 145.333 272.754 144.872 272.754 144.334C272.754 143.233 273.133 142.42 273.891 141.897C274.662 141.373 275.667 141.112 276.907 141.112H278.683C278.766 141.112 278.807 141.07 278.807 140.988V140.616C278.807 140.148 278.663 139.803 278.374 139.583C278.098 139.363 277.561 139.252 276.762 139.252C276.253 139.252 275.812 139.314 275.44 139.438C275.068 139.562 274.765 139.714 274.531 139.893C274.421 139.976 274.331 139.962 274.263 139.852L273.333 138.22C273.264 138.096 273.285 137.999 273.395 137.93C273.822 137.627 274.338 137.386 274.944 137.207C275.564 137.028 276.287 136.939 277.113 136.939C277.926 136.939 278.615 137.014 279.179 137.166C279.744 137.304 280.198 137.524 280.543 137.827C280.901 138.116 281.156 138.488 281.307 138.943C281.472 139.397 281.555 139.934 281.555 140.554V146.958C281.555 147.096 281.486 147.165 281.348 147.165H279.055ZM276.948 145.223C278.188 145.223 278.807 144.761 278.807 143.839V143.157C278.807 143.074 278.766 143.033 278.683 143.033H277.279C276.094 143.033 275.502 143.412 275.502 144.169C275.502 144.872 275.984 145.223 276.948 145.223ZM288.379 147.392C287.236 147.392 286.286 147.144 285.528 146.648C284.771 146.152 284.247 145.45 283.958 144.541C283.848 144.224 283.758 143.88 283.689 143.508C283.634 143.136 283.607 142.689 283.607 142.165C283.607 141.642 283.634 141.194 283.689 140.823C283.745 140.437 283.827 140.086 283.937 139.769C284.227 138.86 284.743 138.164 285.487 137.682C286.244 137.187 287.16 136.939 288.234 136.939C289.35 136.939 290.273 137.187 291.003 137.682C291.746 138.178 292.263 138.867 292.552 139.748C292.607 139.914 292.655 140.093 292.697 140.285C292.738 140.464 292.772 140.671 292.8 140.905C292.827 141.139 292.848 141.415 292.862 141.731C292.876 142.034 292.883 142.399 292.883 142.826C292.883 142.964 292.807 143.033 292.655 143.033H286.602C286.52 143.033 286.478 143.074 286.478 143.157C286.492 143.364 286.533 143.549 286.602 143.715C286.74 144.155 286.988 144.486 287.346 144.706C287.704 144.927 288.145 145.037 288.668 145.037C289.164 145.037 289.598 144.961 289.97 144.81C290.342 144.644 290.672 144.424 290.961 144.149C291.085 144.052 291.182 144.052 291.251 144.149L292.614 145.429C292.724 145.526 292.731 145.622 292.635 145.719C292.153 146.228 291.553 146.634 290.837 146.937C290.121 147.24 289.302 147.392 288.379 147.392ZM289.908 141.112C289.99 141.112 290.032 141.07 290.032 140.988C290.032 140.836 290.018 140.705 289.99 140.595C289.977 140.471 289.956 140.354 289.928 140.244C289.818 139.9 289.612 139.631 289.309 139.438C289.019 139.246 288.668 139.149 288.255 139.149C287.842 139.149 287.484 139.246 287.181 139.438C286.892 139.631 286.692 139.9 286.582 140.244C286.554 140.354 286.527 140.471 286.499 140.595C286.485 140.705 286.478 140.836 286.478 140.988C286.478 141.07 286.52 141.112 286.602 141.112H289.908Z" fill="black"/>
</svg>
