<svg width="765" height="889" viewBox="0 0 765 889" fill="none" xmlns="http://www.w3.org/2000/svg">
<path d="M382.449 888.836C593.67 888.836 764.899 791.565 764.899 671.575C764.899 551.585 593.67 454.313 382.449 454.313C171.228 454.313 0 551.585 0 671.575C0 791.565 171.228 888.836 382.449 888.836Z" fill="#F5F5F5"/>
<path d="M541.601 808.562L256.118 643.723C253.607 642.276 251.521 640.193 250.07 637.684C248.62 635.174 247.856 632.327 247.856 629.429C247.856 626.53 248.62 623.683 250.07 621.173C251.521 618.664 253.607 616.581 256.118 615.134L284.28 597.375C289.141 594.575 294.653 593.101 300.263 593.101C305.873 593.101 311.385 594.575 316.246 597.375L601.768 762.233C604.28 763.68 606.366 765.763 607.816 768.272C609.266 770.782 610.03 773.629 610.03 776.527C610.03 779.426 609.266 782.273 607.816 784.783C606.366 787.292 604.28 789.375 601.768 790.822L573.606 808.562C568.743 811.376 563.223 812.858 557.604 812.858C551.984 812.858 546.465 811.376 541.601 808.562Z" fill="#E0E0E0"/>
<path d="M107.525 658.28C141.74 658.28 169.477 642.352 169.477 622.703C169.477 603.055 141.74 587.127 107.525 587.127C73.309 587.127 45.5718 603.055 45.5718 622.703C45.5718 642.352 73.309 658.28 107.525 658.28Z" fill="#E6E6E6"/>
<path d="M642.837 666.431L670.009 682.055C670.009 682.055 656.132 638.444 663.527 594.483C666.322 577.869 672.319 569.621 674.415 565.176C676.511 560.731 692.756 533.268 678.297 520.691C663.837 508.114 630.202 533.404 632.026 601.082C632.856 623.234 636.488 645.192 642.837 666.431Z" fill="#C10D10"/>
<path opacity="0.5" d="M642.837 666.431L670.009 682.055C670.009 682.055 656.132 638.444 663.527 594.483C666.322 577.869 672.319 569.621 674.415 565.176C676.511 560.731 692.756 533.268 678.297 520.691C663.837 508.114 630.202 533.404 632.026 601.082C632.856 623.234 636.488 645.192 642.837 666.431Z" fill="black"/>
<path d="M655.472 674.661C655.274 674.665 655.08 674.607 654.917 674.496C654.753 674.385 654.628 674.225 654.56 674.04C654.463 673.749 644.079 645.373 644.409 599.763C644.739 554.152 668.709 529.386 668.942 529.153C669.032 529.063 669.139 528.99 669.258 528.941C669.376 528.892 669.503 528.866 669.631 528.866C669.759 528.866 669.886 528.892 670.004 528.941C670.122 528.99 670.23 529.063 670.32 529.153C670.411 529.244 670.483 529.351 670.532 529.469C670.581 529.588 670.607 529.714 670.607 529.843C670.607 529.971 670.581 530.097 670.532 530.216C670.483 530.334 670.411 530.441 670.32 530.531C670.087 530.764 646.68 554.792 646.35 599.782C646.02 644.771 656.268 673.108 656.384 673.38C656.472 673.622 656.459 673.889 656.35 674.122C656.241 674.354 656.044 674.535 655.802 674.622C655.695 674.655 655.584 674.668 655.472 674.661Z" fill="white"/>
<path d="M654.172 673.108L691.32 694.458C695.191 696.746 699.782 697.491 704.177 696.545C708.573 695.599 712.451 693.031 715.038 689.353C717.496 685.527 718.534 680.959 717.968 676.446C716.183 657.154 707.798 652.71 718.065 644.111C728.333 635.513 731.011 634.912 730.429 626.644C729.846 618.375 724.199 614.765 721.52 611.505C718.842 608.244 711.428 601.412 716.474 591.32C721.52 581.227 728.41 571.464 717.968 567C711.738 564.322 701.354 567.893 694.523 575.307C687.691 582.722 682.062 588.059 675.521 589.845C668.981 591.63 655.356 591.921 655.938 603.198C656.52 614.474 659.509 618.337 656.831 623.363C651.784 632.757 629.833 638.095 654.172 673.108Z" fill="#C10D10"/>
<path d="M672.532 684.598C672.29 684.59 672.059 684.496 671.881 684.332C671.703 684.168 671.59 683.946 671.562 683.705C671.562 683.045 665.856 616.435 711.66 572.105C711.849 571.949 712.09 571.87 712.335 571.885C712.579 571.899 712.809 572.005 712.979 572.182C713.148 572.359 713.245 572.593 713.248 572.838C713.252 573.083 713.163 573.32 713 573.502C667.855 617.192 673.445 682.871 673.503 683.531C673.524 683.785 673.445 684.038 673.281 684.234C673.118 684.43 672.884 684.554 672.629 684.579L672.532 684.598Z" fill="white"/>
<path d="M679.888 627.265C679.644 627.265 679.408 627.174 679.228 627.008C679.048 626.843 678.937 626.615 678.918 626.372C678.511 621.21 677.057 616.185 674.645 611.603C672.232 607.021 668.911 602.979 664.885 599.724C664.78 599.65 664.691 599.556 664.622 599.448C664.554 599.34 664.507 599.219 664.486 599.093C664.464 598.966 664.468 598.837 664.496 598.712C664.525 598.587 664.578 598.469 664.652 598.365C664.724 598.261 664.816 598.172 664.923 598.103C665.029 598.035 665.148 597.989 665.273 597.967C665.398 597.945 665.525 597.949 665.649 597.977C665.772 598.005 665.889 598.058 665.992 598.132C670.282 601.535 673.819 605.791 676.378 610.632C678.938 615.474 680.463 620.794 680.859 626.255C680.88 626.515 680.799 626.773 680.631 626.972C680.464 627.172 680.225 627.298 679.966 627.323L679.888 627.265Z" fill="white"/>
<path d="M676.725 638.696C676.49 638.699 676.263 638.616 676.085 638.463C675.892 638.292 675.774 638.052 675.756 637.794C675.738 637.537 675.821 637.282 675.987 637.085C676.453 636.542 687.924 623.888 714.805 627.245C715.06 627.279 715.29 627.412 715.447 627.616C715.603 627.82 715.673 628.077 715.64 628.332C715.606 628.588 715.473 628.821 715.27 628.98C715.067 629.14 714.809 629.214 714.553 629.186C688.739 625.945 677.54 638.25 677.424 638.366C677.335 638.465 677.228 638.546 677.108 638.602C676.988 638.659 676.858 638.691 676.725 638.696Z" fill="white"/>
<path d="M532.906 788.862L281.835 643.898C264.114 633.669 249.752 606.225 249.752 582.605V44.9826C249.752 21.3622 264.114 10.5127 281.835 20.7411L532.906 165.705C550.626 175.933 564.989 203.377 564.989 226.998V764.62C564.989 788.221 550.626 799.09 532.906 788.862Z" fill="#455A64"/>
<path d="M561.825 148.8L310.734 3.83606C303.165 -0.530904 296.216 -1.03553 290.724 1.64287C290.051 1.97963 289.403 2.36224 288.783 2.78799L260.64 19.1496C266.307 15.753 273.722 16.0053 281.854 20.7023L532.925 165.666C550.646 175.895 565.008 203.339 565.008 226.959V764.581C565.008 777.081 560.991 785.931 554.586 790.123L582.36 773.956C589.444 770.19 594.005 760.971 594.005 747.754V210.132C594.005 186.472 579.545 159.028 561.825 148.8Z" fill="#37474F"/>
<path d="M564.989 226.959V764.581C564.989 777.081 560.971 785.931 554.566 790.123L582.36 773.956C589.444 770.19 594.005 760.971 594.005 747.754V210.132L565.086 226.92L564.989 226.959Z" fill="#263238"/>
<path d="M593.908 251.841L564.989 268.533V281.575L593.908 264.864V251.841Z" fill="#37474F"/>
<path d="M581.234 338.579C578.653 340.073 576.557 338.482 576.557 335.046V307.001C576.583 305.248 577.02 303.525 577.832 301.971C578.644 300.417 579.81 299.075 581.234 298.053C583.816 296.559 585.912 298.053 585.912 301.586V329.631C585.885 331.385 585.449 333.107 584.636 334.661C583.824 336.215 582.659 337.557 581.234 338.579Z" fill="#37474F"/>
<path d="M576.537 335.124V307.001C576.563 305.247 577 303.525 577.812 301.971C578.625 300.417 579.79 299.075 581.214 298.053C581.64 297.755 582.136 297.574 582.653 297.526C583.171 297.479 583.692 297.567 584.165 297.782L580.652 295.977C580.171 295.745 579.638 295.645 579.106 295.686C578.575 295.727 578.063 295.907 577.624 296.209C576.198 297.232 575.03 298.573 574.215 300.126C573.399 301.68 572.958 303.403 572.927 305.157V333.183C572.854 333.891 572.962 334.606 573.24 335.261C573.518 335.916 573.958 336.49 574.518 336.929L578.187 338.87C577.603 338.449 577.142 337.88 576.852 337.221C576.562 336.563 576.453 335.839 576.537 335.124Z" fill="#455A64"/>
<path d="M581.234 406.451C578.653 407.946 576.557 406.451 576.557 402.919V374.873C576.584 373.12 577.022 371.398 577.834 369.845C578.646 368.291 579.811 366.949 581.234 365.926C583.816 364.431 585.912 365.926 585.912 369.478V397.504C585.888 399.258 585.453 400.981 584.64 402.536C583.828 404.09 582.661 405.431 581.234 406.451Z" fill="#37474F"/>
<path d="M576.537 402.919V374.873C576.565 373.12 577.002 371.398 577.814 369.845C578.626 368.291 579.791 366.949 581.214 365.926C581.642 365.633 582.138 365.455 582.654 365.407C583.171 365.36 583.69 365.445 584.165 365.654L580.652 363.83C580.174 363.588 579.639 363.482 579.105 363.523C578.571 363.564 578.059 363.751 577.624 364.062C576.194 365.081 575.025 366.422 574.209 367.976C573.393 369.531 572.954 371.255 572.927 373.01V401.114C572.852 401.822 572.959 402.537 573.238 403.193C573.516 403.848 573.957 404.422 574.518 404.86L578.187 406.801C577.579 406.37 577.103 405.779 576.811 405.094C576.52 404.408 576.425 403.655 576.537 402.919Z" fill="#455A64"/>
<path d="M524.133 180.786L277.409 38.2865C276.379 37.6942 275.213 37.3814 274.025 37.3792C272.837 37.377 271.669 37.6854 270.637 38.274C269.605 38.8625 268.745 39.7107 268.142 40.7343C267.539 41.7579 267.215 42.9213 267.2 44.1092V582.605C267.2 600.577 279.952 622.645 295.518 631.631L536.186 770.656C537.327 771.313 538.621 771.658 539.938 771.657C541.255 771.656 542.548 771.309 543.689 770.65C544.829 769.991 545.776 769.045 546.435 767.905C547.094 766.764 547.442 765.471 547.443 764.154V221.214C547.54 206.386 537.021 188.2 524.133 180.786Z" fill="#C10D10"/>
<path opacity="0.9" d="M524.133 180.786L277.409 38.2865C276.379 37.6942 275.213 37.3814 274.025 37.3792C272.837 37.377 271.669 37.6854 270.637 38.274C269.605 38.8625 268.745 39.7107 268.142 40.7343C267.539 41.7579 267.215 42.9213 267.2 44.1092V582.605C267.2 600.577 279.952 622.645 295.518 631.631L536.186 770.656C537.327 771.313 538.621 771.658 539.938 771.657C541.255 771.656 542.548 771.309 543.689 770.65C544.829 769.991 545.776 769.045 546.435 767.905C547.094 766.764 547.442 765.471 547.443 764.154V221.214C547.54 206.386 537.021 188.2 524.133 180.786Z" fill="white"/>
<path d="M351.202 75.4932L355.025 91.583L436.814 138.746L450.943 131.216L351.202 75.4932Z" fill="#455A64"/>
<path d="M375.249 91.0396C375.249 93.718 373.308 94.7855 371.056 93.4657C369.848 92.6633 368.844 91.5886 368.126 90.3279C367.408 89.0672 366.996 87.6558 366.922 86.2068C366.922 83.5478 368.863 82.461 371.115 83.8002C372.323 84.5984 373.327 85.6695 374.045 86.9271C374.763 88.1846 375.175 89.5933 375.249 91.0396Z" fill="#263238"/>
<path d="M430.35 125.102C429.903 125.098 429.463 124.985 429.069 124.772L387.302 101.481C386.712 101.135 386.281 100.572 386.101 99.9122C385.921 99.2524 386.006 98.5484 386.338 97.9505C386.669 97.3525 387.222 96.908 387.877 96.7119C388.532 96.5159 389.238 96.5837 389.844 96.901L431.631 120.191C432.139 120.474 432.539 120.917 432.767 121.451C432.996 121.986 433.04 122.581 432.894 123.143C432.747 123.705 432.417 124.203 431.957 124.558C431.497 124.912 430.931 125.104 430.35 125.102Z" fill="#263238"/>
<path d="M318.944 150.353C316.401 148.878 314.558 150.159 314.558 153.4C314.558 155.021 314.958 156.616 315.723 158.045C316.488 159.474 317.595 160.692 318.944 161.59C319.667 162.029 320.496 162.261 321.341 162.261C322.186 162.261 323.015 162.029 323.738 161.59L327.794 168.927C326.367 169.714 324.749 170.089 323.121 170.011C321.494 169.932 319.919 169.402 318.575 168.48C315.28 166.464 312.532 163.667 310.575 160.336C308.619 157.004 307.513 153.242 307.357 149.382C307.357 142.182 312.19 139.678 318.847 143.56C322.606 145.98 325.686 149.321 327.794 153.264L323.738 156.486C322.738 154.038 321.078 151.915 318.944 150.353Z" fill="#C10D10"/>
<path d="M351.143 174.672C351.143 181.931 346.233 184.376 339.498 180.494C336.108 178.469 333.272 175.637 331.24 172.251C329.208 168.865 328.045 165.03 327.853 161.086C327.853 153.827 332.763 151.381 339.498 155.263C342.895 157.279 345.739 160.109 347.771 163.497C349.804 166.885 350.963 170.725 351.143 174.672ZM335.053 165.414C335.087 167.08 335.517 168.715 336.306 170.183C337.096 171.651 338.223 172.91 339.595 173.857C342.002 175.254 343.942 173.857 343.942 170.557C343.936 168.928 343.537 167.325 342.781 165.882C342.024 164.44 340.931 163.201 339.595 162.27C337.149 160.853 335.053 162.056 335.053 165.414Z" fill="#C10D10"/>
<path d="M358.965 166.966L367.35 184.434V171.857L373.696 175.526V200L367.874 196.623L359.528 179.31V191.81L353.143 188.122V163.589L358.965 166.966Z" fill="#C10D10"/>
<path d="M394.444 187.443V193.848L388.388 190.354V208.443L381.382 204.387V186.298L375.365 182.823V176.438L394.444 187.443Z" fill="#C10D10"/>
<path d="M408.108 216.362L400.15 211.762L399.064 214.596L391.882 210.442L400.83 191.13L408.03 195.284L416.648 224.746L409.175 220.438L408.108 216.362ZM406.381 209.569L404.207 201.204L401.975 207.026L406.381 209.569Z" fill="#C10D10"/>
<path d="M427.769 213.179C425.227 211.723 423.383 212.985 423.383 216.245C423.386 217.866 423.788 219.46 424.553 220.888C425.318 222.317 426.422 223.535 427.769 224.436C428.497 224.87 429.328 225.099 430.176 225.099C431.023 225.099 431.855 224.87 432.582 224.436L436.639 231.772C435.206 232.551 433.586 232.921 431.957 232.842C430.328 232.763 428.752 232.239 427.4 231.326C424.102 229.308 421.353 226.507 419.396 223.173C417.439 219.838 416.335 216.072 416.182 212.208C416.182 205.008 421.034 202.504 427.672 206.386C431.427 208.818 434.51 212.155 436.639 216.09L432.582 219.293C431.56 216.857 429.897 214.744 427.769 213.179Z" fill="#C10D10"/>
<path d="M455.776 222.864V229.249L449.721 225.756V243.903L442.714 239.847V221.758L436.697 218.283V211.898L455.776 222.864Z" fill="#C10D10"/>
<path d="M476.485 252.908C478.212 253.898 479.532 253.122 479.532 250.696V236.586L486.558 240.623V254.733C486.558 261.235 482.676 263.176 476.465 259.624C473.473 257.962 470.958 255.56 469.16 252.648C467.363 249.735 466.343 246.41 466.198 242.991V228.88L473.224 232.937V247.047C473.251 248.215 473.562 249.359 474.13 250.381C474.699 251.402 475.507 252.269 476.485 252.908Z" fill="#C10D10"/>
<path d="M497.873 252.986C497.078 252.54 496.573 252.52 496.573 253.258C496.573 256.324 507.539 260.75 507.539 269.619C507.539 275.054 503.405 275.073 498.63 272.317C494.433 269.746 490.818 266.328 488.014 262.283L490.614 257.702C492.748 261.007 495.488 263.878 498.688 266.165C499.717 266.766 500.377 266.766 500.377 265.893C500.377 262.71 489.392 258.479 489.392 249.881C489.392 244.99 492.963 244.058 498.475 247.163C502.026 249.311 505.151 252.094 507.694 255.373L505.152 260.07C503.051 257.396 500.604 255.013 497.873 252.986Z" fill="#C10D10"/>
<path d="M283.64 270.959C291.515 261.287 295.479 249.014 294.75 236.563C294.021 224.112 288.652 212.386 279.702 203.699C270.752 195.012 258.872 189.994 246.404 189.637C233.937 189.279 221.788 193.607 212.355 201.766C202.921 209.926 196.889 221.325 195.447 233.714C194.005 246.103 197.259 258.582 204.567 268.69C211.874 278.797 222.704 285.799 234.921 288.314C247.137 290.829 259.853 288.674 270.558 282.274L294.858 292.832L283.64 270.959Z" fill="#C10D10"/>
<path opacity="0.4" d="M283.64 270.959C291.515 261.287 295.479 249.014 294.75 236.563C294.021 224.112 288.652 212.386 279.702 203.699C270.752 195.012 258.872 189.994 246.404 189.637C233.937 189.279 221.788 193.607 212.355 201.766C202.921 209.926 196.889 221.325 195.447 233.714C194.005 246.103 197.259 258.582 204.567 268.69C211.874 278.797 222.704 285.799 234.921 288.314C247.137 290.829 259.853 288.674 270.558 282.274L294.858 292.832L283.64 270.959Z" fill="black"/>
<path d="M226.5 236.799C226.5 236.042 225.957 235.615 224.967 235.615C222.671 235.916 220.526 236.927 218.834 238.507L216.078 233.151C218.979 230.968 222.483 229.734 226.112 229.618C230.77 229.618 234.302 232.064 234.302 235.713C234.302 238.313 232.362 240.817 229.877 243.321L226.403 246.756H234.613V252.462H216.97V247.785L224.831 239.652C225.677 238.904 226.262 237.904 226.5 236.799Z" fill="white"/>
<path d="M248.976 229.948L243.619 242.797H245.812V238.468H252.566V242.797H255.128V248.095H252.566V252.462H245.812V248.095H236.205V243.282L242.027 229.948H248.976Z" fill="white"/>
<path d="M275.973 241.263V252.462H268.753V243.34C268.795 243.043 268.772 242.74 268.687 242.453C268.601 242.165 268.455 241.899 268.259 241.673C268.062 241.447 267.819 241.265 267.546 241.141C267.273 241.017 266.976 240.953 266.676 240.953C265.259 240.953 264.367 242.059 264.367 243.767V252.462H257.146V228.667H264.367V237.42C264.931 236.528 265.719 235.797 266.651 235.3C267.583 234.803 268.629 234.558 269.685 234.587C270.55 234.564 271.41 234.725 272.209 235.058C273.008 235.391 273.728 235.889 274.322 236.519C274.915 237.149 275.369 237.897 275.654 238.715C275.938 239.532 276.047 240.401 275.973 241.263Z" fill="white"/>
<path d="M511.401 421.609V662.763C511.405 665.491 510.691 668.171 509.33 670.535C507.969 672.898 506.009 674.862 503.648 676.227C501.287 677.593 498.608 678.312 495.88 678.313C493.153 678.314 490.473 677.597 488.111 676.233L358.227 601.237L335.209 587.962C327.282 583.379 320.698 576.795 316.113 568.87C311.529 560.944 309.105 551.954 309.084 542.798V301.625C309.08 298.897 309.795 296.217 311.156 293.853C312.517 291.49 314.477 289.526 316.838 288.161C319.199 286.795 321.878 286.076 324.606 286.075C327.333 286.074 330.013 286.791 332.375 288.155L485.316 376.445C493.246 381.021 499.831 387.604 504.41 395.532C508.989 403.46 511.4 412.454 511.401 421.609Z" fill="#C10D10"/>
<path opacity="0.5" d="M511.401 421.609V662.763C511.405 665.491 510.691 668.171 509.33 670.535C507.969 672.898 506.009 674.862 503.648 676.227C501.287 677.593 498.608 678.312 495.88 678.313C493.153 678.314 490.473 677.597 488.111 676.233L358.227 601.237L335.209 587.962C327.282 583.379 320.698 576.795 316.113 568.87C311.529 560.944 309.105 551.954 309.084 542.798V301.625C309.08 298.897 309.795 296.217 311.156 293.853C312.517 291.49 314.477 289.526 316.838 288.161C319.199 286.795 321.878 286.076 324.606 286.075C327.333 286.074 330.013 286.791 332.375 288.155L485.316 376.445C493.246 381.021 499.831 387.604 504.41 395.532C508.989 403.46 511.4 412.454 511.401 421.609Z" fill="white"/>
<path d="M436.58 564.302C436.58 564.302 460.899 604.634 443.335 650.109L358.169 601.237L436.58 564.302Z" fill="#263238"/>
<path d="M475.364 383.097C477.204 368.15 466.579 354.54 451.632 352.7C436.684 350.859 423.075 361.484 421.234 376.432C419.393 391.379 430.019 404.989 444.966 406.829C459.914 408.67 473.523 398.045 475.364 383.097Z" fill="#263238"/>
<path d="M448.439 303.274C448.439 303.274 456.804 289.688 459.366 290.678C461.928 291.668 457.697 304.614 457.697 304.614C457.697 304.614 470.351 307.253 468.003 310.436C465.654 313.619 450.186 312.862 450.186 312.862L448.439 303.274Z" fill="#263238"/>
<path d="M454.262 338.288C448.439 382.035 411.563 382.035 411.563 382.035L334.316 348.031C334.316 348.031 328.493 342.926 326.708 331.204C326.023 326.402 326.023 321.527 326.708 316.725C326.708 316.725 326.708 316.628 326.708 316.589C329.173 298.189 342.933 278.412 372.9 272.337C379.468 271.011 386.153 270.36 392.853 270.396C396.094 270.385 399.333 270.546 402.557 270.881C425.848 273.171 442.17 284.04 449.953 300.945C451.704 304.761 453.006 308.766 453.835 312.882C455.415 321.265 455.559 329.856 454.262 338.288Z" fill="#263238"/>
<path d="M268.811 422.91C268.811 422.91 241.386 421.959 230.828 448.685C230.828 448.685 242.473 456.545 257.748 448.685C273.023 440.824 268.811 422.91 268.811 422.91Z" fill="#C10D10"/>
<path opacity="0.5" d="M268.811 422.91C268.811 422.91 241.386 421.959 230.828 448.685C230.828 448.685 242.473 456.545 257.748 448.685C273.023 440.824 268.811 422.91 268.811 422.91Z" fill="black"/>
<path d="M268.035 435.778C268.035 435.778 260.271 402.045 256.176 401.638C252.081 401.23 251.285 411.924 251.615 417.961L241.911 397.077C241.603 396.428 241.165 395.849 240.625 395.375C240.085 394.902 239.453 394.544 238.77 394.324C238.086 394.104 237.364 394.026 236.65 394.096C235.935 394.165 235.241 394.381 234.613 394.728C224.909 400.066 207.887 416.291 243.774 456.409L268.035 435.778Z" fill="#945959"/>
<path d="M367.407 412.449L361.585 411.692C355.717 410.914 349.747 411.712 344.29 414.004C338.832 416.296 334.083 420 330.531 424.734L295.886 470.85L268.714 422.91C268.714 422.91 265.453 455.517 230.731 448.685L268.015 511.433C270.375 515.406 273.659 518.749 277.588 521.18C281.518 523.61 285.976 525.056 290.584 525.393C295.192 525.73 299.814 524.95 304.055 523.117C308.297 521.285 312.033 518.455 314.946 514.869L346.854 475.643L367.407 412.449Z" fill="#C10D10"/>
<path d="M441.355 520.07C433.592 539.75 432.738 543.593 437.473 553.434C440.771 560.701 443.371 568.266 445.237 576.025C445.237 576.025 409.253 616.357 358.033 601.257L335.015 587.981C330.228 585.22 325.916 581.708 322.244 577.578L329.25 525.33C329.603 522.579 329.324 519.785 328.435 517.159L321.079 495.596C317.49 485.064 316.955 473.731 319.538 462.908C322.121 452.085 327.716 442.214 335.674 434.439L360.401 410.275L425.343 418.582L435.047 421.357C441.4 423.194 446.877 427.263 450.471 432.814C454.065 438.366 455.535 445.028 454.611 451.576C451.428 474.479 446.227 507.707 441.355 520.07Z" fill="#C10D10"/>
<path opacity="0.5" d="M441.355 520.07C433.592 539.75 432.738 543.593 437.473 553.434C440.771 560.701 443.371 568.266 445.237 576.025C445.237 576.025 409.253 616.357 358.033 601.257L335.015 587.981C330.228 585.22 325.916 581.708 322.244 577.578L329.25 525.33C329.603 522.579 329.324 519.785 328.435 517.159L321.079 495.596C317.49 485.064 316.955 473.731 319.538 462.908C322.121 452.085 327.716 442.214 335.674 434.439L360.401 410.275L425.343 418.582L435.047 421.357C441.4 423.194 446.877 427.263 450.471 432.814C454.065 438.366 455.535 445.028 454.611 451.576C451.428 474.479 446.227 507.707 441.355 520.07Z" fill="black"/>
<path d="M402.188 461.281L389.184 450.199C387.807 449.02 386.147 448.222 384.366 447.881C382.586 447.541 380.748 447.671 379.034 448.258L363.312 453.673L361.197 444.861C360.867 443.49 360.262 442.2 359.42 441.069C358.578 439.938 357.515 438.99 356.297 438.281C355.078 437.572 353.728 437.117 352.329 436.943C350.929 436.77 349.509 436.882 348.154 437.272L341.342 439.213L352.871 417.126C356.635 409.932 362.433 404.006 369.543 400.085L374.065 397.601L411.427 399.542C411.427 399.542 425.343 405.364 425.343 418.465L402.188 461.164" fill="#C10D10"/>
<path d="M411.582 416.097L374.123 445.288V352.34H411.582V416.097Z" fill="#945959"/>
<path d="M374.705 408.431L363.312 453.75L411.427 416.097L374.705 408.431Z" fill="#945959"/>
<path d="M374.123 401.696C382.452 398.603 390.066 393.85 396.502 387.724C402.938 381.598 408.062 374.228 411.562 366.062V352.34H374.104L374.123 401.696Z" fill="#703838"/>
<path d="M382.197 283.458C367.99 283.458 337.79 291.377 334.296 328.564C330.803 365.751 334.18 394.554 353.356 397.349C372.531 400.143 417.094 386.227 423.072 338.094C429.05 289.96 396.035 283.458 382.197 283.458Z" fill="#945959"/>
<path d="M359.838 344.304V366.217L346.99 362.277L359.838 344.304Z" fill="#703838"/>
<path d="M374.123 352.553C376.589 352.553 378.587 350.554 378.587 348.089C378.587 345.624 376.589 343.625 374.123 343.625C371.658 343.625 369.659 345.624 369.659 348.089C369.659 350.554 371.658 352.553 374.123 352.553Z" fill="#263238"/>
<path d="M349.202 344.984C349.199 345.866 348.933 346.727 348.441 347.458C347.948 348.19 347.249 348.759 346.433 349.094C345.617 349.429 344.72 349.515 343.856 349.34C342.991 349.166 342.197 348.739 341.575 348.114C340.953 347.489 340.529 346.693 340.359 345.828C340.188 344.963 340.278 344.066 340.616 343.251C340.954 342.437 341.527 341.741 342.26 341.251C342.994 340.762 343.856 340.5 344.738 340.5C345.326 340.5 345.908 340.616 346.451 340.842C346.994 341.067 347.487 341.398 347.902 341.815C348.317 342.231 348.645 342.726 348.868 343.269C349.091 343.813 349.205 344.396 349.202 344.984Z" fill="#263238"/>
<path d="M339.284 335.667L348.018 330.485C348.018 330.485 344.68 327.011 341.342 329.088C338.004 331.165 339.284 335.667 339.284 335.667Z" fill="#263238"/>
<path d="M353.802 375.106C358.056 375.417 362.289 374.281 365.816 371.884C365.816 371.884 366.651 378.231 361.333 379.434C356.015 380.638 353.802 375.106 353.802 375.106Z" fill="#703838"/>
<path d="M346.174 296.113C346.174 296.113 351.512 347.449 421.325 349.06C421.325 349.06 442.422 298.034 400.732 281.459C359.042 264.884 346.174 296.113 346.174 296.113Z" fill="#263238"/>
<path d="M441.879 341.374L433.3 336.405C430.04 334.464 425.537 334.736 420.549 337.608C410.65 343.315 402.615 357.231 402.615 368.662C402.615 374.388 404.556 378.367 407.894 380.308L416.318 385.16L416.803 385.432L417.094 385.606C420.277 387.159 424.528 386.79 429.205 384.092C439.104 378.27 447.139 364.47 447.139 353.038C447.081 347.255 445.082 343.256 441.879 341.374Z" fill="#C10D10"/>
<path d="M441.811 370.607C448.811 358.484 448.811 345.38 441.811 341.338C434.812 337.297 423.464 343.85 416.464 355.973C409.464 368.097 409.464 381.201 416.464 385.242C423.463 389.283 434.812 382.731 441.811 370.607Z" fill="#C10D10"/>
<path opacity="0.5" d="M441.811 370.607C448.811 358.484 448.811 345.38 441.811 341.338C434.812 337.297 423.464 343.85 416.464 355.973C409.464 368.097 409.464 381.201 416.464 385.242C423.463 389.283 434.812 382.731 441.811 370.607Z" fill="black"/>
<path d="M445.314 352.146L439.492 348.749C437.279 347.429 434.193 347.604 430.777 349.564C427.209 351.896 424.239 355.035 422.108 358.727C419.977 362.419 418.745 366.56 418.511 370.817C418.511 374.699 419.889 377.474 422.121 378.755L427.943 382.074C428.047 382.149 428.157 382.214 428.273 382.268L428.467 382.384C429.832 382.902 431.303 383.077 432.751 382.895C434.2 382.712 435.581 382.177 436.774 381.336C440.34 379.006 443.308 375.87 445.439 372.182C447.57 368.494 448.804 364.356 449.041 360.103C448.885 356.163 447.527 353.427 445.314 352.146Z" fill="#C10D10"/>
<path d="M448.886 360.064C448.648 364.317 447.415 368.455 445.284 372.143C443.153 375.832 440.185 378.967 436.619 381.297C429.826 385.179 424.333 382.035 424.333 374.213C424.564 369.956 425.797 365.814 427.932 362.124C430.067 358.434 433.043 355.301 436.619 352.98C443.393 349.06 448.886 352.223 448.886 360.064Z" fill="#C10D10"/>
<path opacity="0.3" d="M448.886 360.064C448.648 364.317 447.415 368.455 445.284 372.143C443.153 375.832 440.185 378.967 436.619 381.297C429.826 385.179 424.333 382.035 424.333 374.213C424.564 369.956 425.797 365.814 427.932 362.124C430.067 358.434 433.043 355.301 436.619 352.98C443.393 349.06 448.886 352.223 448.886 360.064Z" fill="black"/>
<path d="M415.231 273.443C409.667 269.145 402.852 266.781 395.822 266.708H394.095C386.976 266.632 379.868 267.282 372.881 268.649C374.162 268.649 375.443 268.649 376.763 268.649H372.881V272.259H376.491C388.932 272.682 400.722 277.927 409.367 286.884C418.013 295.841 422.837 307.808 422.82 320.257V335.532C422.819 336.135 422.945 336.733 423.19 337.284C423.436 337.836 423.794 338.33 424.242 338.735C424.691 339.139 425.219 339.445 425.793 339.632C426.367 339.819 426.974 339.884 427.575 339.821H428.021L431.903 338.618C431.644 338.699 431.377 338.751 431.107 338.773C432.264 338.616 433.323 338.038 434.082 337.151C434.841 336.263 435.247 335.127 435.222 333.96V319.791C435.183 294.152 424.101 280.372 415.231 273.443Z" fill="#C10D10"/>
<path d="M390.795 396.281C389.194 396.281 387.612 395.937 386.156 395.272L374.026 389.663C373.836 389.595 373.662 389.488 373.516 389.35C373.369 389.212 373.253 389.044 373.175 388.859C373.096 388.673 373.057 388.473 373.06 388.272C373.063 388.07 373.108 387.871 373.191 387.688C373.275 387.505 373.396 387.341 373.546 387.207C373.696 387.072 373.873 386.971 374.064 386.908C374.256 386.846 374.458 386.824 374.659 386.843C374.859 386.863 375.053 386.924 375.229 387.023L387.36 392.632C388.907 393.352 390.64 393.57 392.317 393.257C393.994 392.944 395.531 392.115 396.715 390.885L408.36 378.852C408.633 378.579 409.003 378.426 409.388 378.426C409.774 378.426 410.144 378.579 410.417 378.852C410.685 379.127 410.835 379.496 410.835 379.881C410.835 380.265 410.685 380.634 410.417 380.909L398.772 392.943C397.735 394.007 396.494 394.852 395.124 395.425C393.753 395.999 392.281 396.29 390.795 396.281Z" fill="#C10D10"/>
<path opacity="0.5" d="M390.795 396.281C389.194 396.281 387.612 395.937 386.156 395.272L374.026 389.663C373.836 389.595 373.662 389.488 373.516 389.35C373.369 389.212 373.253 389.044 373.175 388.859C373.096 388.673 373.057 388.473 373.06 388.272C373.063 388.07 373.108 387.871 373.191 387.688C373.275 387.505 373.396 387.341 373.546 387.207C373.696 387.072 373.873 386.971 374.064 386.908C374.256 386.846 374.458 386.824 374.659 386.843C374.859 386.863 375.053 386.924 375.229 387.023L387.36 392.632C388.907 393.352 390.64 393.57 392.317 393.257C393.994 392.944 395.531 392.115 396.715 390.885L408.36 378.852C408.633 378.579 409.003 378.426 409.388 378.426C409.774 378.426 410.144 378.579 410.417 378.852C410.685 379.127 410.835 379.496 410.835 379.881C410.835 380.265 410.685 380.634 410.417 380.909L398.772 392.943C397.735 394.007 396.494 394.852 395.124 395.425C393.753 395.999 392.281 396.29 390.795 396.281Z" fill="black"/>
<path d="M377.209 385.587C377.209 386.708 376.877 387.803 376.254 388.735C375.631 389.667 374.746 390.394 373.711 390.823C372.675 391.252 371.536 391.364 370.436 391.145C369.337 390.927 368.327 390.387 367.534 389.594C366.742 388.802 366.202 387.792 365.983 386.692C365.765 385.593 365.877 384.454 366.306 383.418C366.735 382.382 367.461 381.497 368.393 380.875C369.325 380.252 370.421 379.919 371.542 379.919C373.045 379.919 374.486 380.517 375.549 381.579C376.612 382.642 377.209 384.084 377.209 385.587Z" fill="#C10D10"/>
<path opacity="0.5" d="M377.209 385.587C377.209 386.708 376.877 387.803 376.254 388.735C375.631 389.667 374.746 390.394 373.711 390.823C372.675 391.252 371.536 391.364 370.436 391.145C369.337 390.927 368.327 390.387 367.534 389.594C366.742 388.802 366.202 387.792 365.983 386.692C365.765 385.593 365.877 384.454 366.306 383.418C366.735 382.382 367.461 381.497 368.393 380.875C369.325 380.252 370.421 379.919 371.542 379.919C373.045 379.919 374.486 380.517 375.549 381.579C376.612 382.642 377.209 384.084 377.209 385.587Z" fill="black"/>
<path d="M435.183 319.791V333.96C435.208 335.127 434.802 336.263 434.043 337.151C433.285 338.038 432.226 338.616 431.068 338.773C430.429 338.841 429.783 338.774 429.171 338.576C428.559 338.377 427.996 338.052 427.518 337.622C427.04 337.192 426.659 336.666 426.397 336.078C426.136 335.491 426.002 334.855 426.003 334.212V319.791C426.014 312.909 424.632 306.095 421.941 299.761C419.251 293.426 415.306 287.701 410.345 282.931C405.384 278.16 399.51 274.443 393.074 272.002C386.639 269.561 379.777 268.447 372.9 268.727C379.887 267.359 386.995 266.709 394.114 266.786H395.803C402.833 266.858 409.647 269.223 415.211 273.521C424.101 280.372 435.183 294.152 435.183 319.791Z" fill="#C10D10"/>
<path opacity="0.5" d="M435.183 319.791V333.96C435.208 335.127 434.802 336.263 434.043 337.151C433.285 338.038 432.226 338.616 431.068 338.773C430.429 338.841 429.783 338.774 429.171 338.576C428.559 338.377 427.996 338.052 427.518 337.622C427.04 337.192 426.659 336.666 426.397 336.078C426.136 335.491 426.002 334.855 426.003 334.212V319.791C426.014 312.909 424.632 306.095 421.941 299.761C419.251 293.426 415.306 287.701 410.345 282.931C405.384 278.16 399.51 274.443 393.074 272.002C386.639 269.561 379.777 268.447 372.9 268.727C379.887 267.359 386.995 266.709 394.114 266.786H395.803C402.833 266.858 409.647 269.223 415.211 273.521C424.101 280.372 435.183 294.152 435.183 319.791Z" fill="black"/>
<path d="M413.367 586.797C413.367 586.797 403.974 612.669 437.551 624.314C437.551 624.314 448.517 608.205 437.551 595.027C426.585 581.848 413.367 586.797 413.367 586.797Z" fill="#C10D10"/>
<path opacity="0.7" d="M413.367 586.797C413.367 586.797 403.974 612.669 437.551 624.314C437.551 624.314 448.517 608.205 437.551 595.027C426.585 581.848 413.367 586.797 413.367 586.797Z" fill="black"/>
<path d="M425.149 587.981C425.149 587.981 392.348 599.995 392.523 604.653C392.697 609.311 406.458 606.128 406.458 606.128L401.431 609.428C396.138 612.882 392.037 617.883 389.689 623.752C389.177 625.046 389.159 626.483 389.639 627.789C390.118 629.096 391.062 630.18 392.29 630.836L404.75 637.435C405.454 637.808 406.225 638.036 407.019 638.106C407.812 638.176 408.611 638.087 409.37 637.842C410.128 637.598 410.829 637.204 411.433 636.684C412.036 636.164 412.529 635.528 412.882 634.815C413.577 633.442 414.537 632.221 415.706 631.222C416.875 630.222 418.231 629.464 419.695 628.992C426.468 626.74 439.104 620.258 444.169 602.518L425.149 587.981Z" fill="#945959"/>
<path d="M434.989 421.318C434.989 421.318 417.521 431.023 426.799 460.485C436.076 489.948 453.486 535.655 453.486 535.655L413.368 586.797C417.654 587.314 421.783 588.729 425.485 590.95C429.187 593.171 432.379 596.147 434.853 599.685C437.223 603.282 438.704 607.392 439.173 611.674C439.642 615.957 439.086 620.289 437.551 624.314L487.354 560.266C491.96 554.347 495.017 547.373 496.251 539.975C497.484 532.578 496.855 524.989 494.419 517.896L473.069 455.555C470.459 447.94 466.123 441.032 460.398 435.372C454.674 429.712 447.718 425.453 440.074 422.929L434.989 421.318Z" fill="#C10D10"/>
<path d="M140.131 247.28L62.9426 202.64C62.0544 202.024 61.0266 201.64 59.9524 201.521C58.8781 201.402 57.7913 201.553 56.7901 201.96C56.5791 202.058 56.3776 202.175 56.1884 202.31L39.3998 212.15H39.5163C37.4007 213.353 36.0615 216.148 36.0615 220.146V306.011C36.0615 313.27 40.4673 321.712 45.9212 324.857L123.11 369.497C124.089 370.205 125.255 370.61 126.463 370.662C127.67 370.714 128.866 370.41 129.903 369.788C129.85 369.809 129.804 369.842 129.767 369.885L146.439 360.181C148.613 359.016 149.991 356.182 149.991 352.126V266.126C149.991 258.867 145.663 250.424 140.131 247.28Z" fill="#C10D10"/>
<path d="M147.235 255.412C145.673 252.091 143.212 249.274 140.131 247.28L62.9427 202.64C62.0544 202.024 61.0267 201.64 59.9525 201.521C58.8782 201.402 57.7913 201.553 56.7901 201.96C56.5791 202.058 56.3777 202.175 56.1885 202.31L39.3999 212.15C40.4269 211.625 41.5784 211.393 42.7286 211.478C43.8788 211.564 44.9833 211.964 45.9212 212.635L123.11 257.275C126.296 259.358 128.821 262.308 130.388 265.776L147.235 255.412Z" fill="#C10D10"/>
<path d="M132.97 361.947C132.97 365.829 131.727 368.526 129.767 369.71L146.439 360.006C148.613 358.841 149.991 356.008 149.991 351.951V266.126C149.909 262.39 148.966 258.724 147.235 255.412L130.388 265.776C132.006 268.99 132.887 272.524 132.97 276.121V361.947Z" fill="#C10D10"/>
<path opacity="0.3" d="M147.235 255.412C145.673 252.091 143.212 249.274 140.131 247.28L62.9427 202.64C62.0544 202.024 61.0267 201.64 59.9525 201.521C58.8782 201.402 57.7913 201.553 56.7901 201.96C56.5791 202.058 56.3777 202.175 56.1885 202.31L39.3999 212.15C40.4269 211.625 41.5784 211.393 42.7286 211.478C43.8788 211.564 44.9833 211.964 45.9212 212.635L123.11 257.275C126.296 259.358 128.821 262.308 130.388 265.776L147.235 255.412Z" fill="black"/>
<path opacity="0.6" d="M132.97 361.947C132.97 365.829 131.727 368.526 129.767 369.71L146.439 360.006C148.613 358.841 149.991 356.008 149.991 351.951V266.126C149.909 262.39 148.966 258.724 147.235 255.412L130.388 265.776C132.006 268.99 132.887 272.524 132.97 276.121V361.947Z" fill="black"/>
<path d="M110.339 300.712C110.339 311.833 105.933 315.618 99.3342 311.795C97.5138 310.758 95.922 309.364 94.6545 307.696C93.387 306.029 92.47 304.122 91.9589 302.09C90.018 304.477 87.0096 304.633 82.7785 302.187C75.8302 298.17 70.3569 288.601 70.3569 279.304C70.3569 270.007 75.772 266.805 82.7785 270.842C86.3339 272.937 89.2058 276.018 91.0466 279.712V276.044L98.3637 280.275V300.382C98.2548 301.44 98.4378 302.508 98.8928 303.47C99.3479 304.431 100.058 305.249 100.945 305.836C103.41 307.272 104.924 304.846 104.924 297.646C104.924 285.049 96.8499 271.696 84.9135 264.806C72.9771 257.916 64.9225 262.71 64.9225 275.675C65.0789 282.554 66.9745 289.282 70.4328 295.232C73.891 301.181 78.7993 306.158 84.7 309.698C87.9039 311.672 91.5421 312.831 95.2972 313.075L97.0245 319.772C92.6522 319.419 88.4271 318.028 84.7 315.715C69.173 306.729 58.9058 288.64 58.9058 272.259C58.9058 255.878 69.27 249.939 84.9135 258.983C100.033 267.698 110.339 285.146 110.339 300.712ZM91.1631 291.377C91.2008 288.915 90.6003 286.487 89.42 284.327C88.2397 282.167 86.5199 280.349 84.4283 279.052C80.5465 276.781 77.7711 278.373 77.7711 283.652C77.7211 286.117 78.3076 288.553 79.4737 290.726C80.6398 292.898 82.3462 294.733 84.4283 296.054C88.31 298.247 91.1631 296.83 91.1631 291.377Z" fill="#C10D10"/>
<g opacity="0.9">
<path d="M110.339 300.712C110.339 311.833 105.933 315.618 99.3342 311.795C97.5138 310.758 95.922 309.364 94.6545 307.696C93.387 306.029 92.47 304.122 91.9589 302.09C90.018 304.477 87.0096 304.633 82.7785 302.187C75.8302 298.17 70.3569 288.601 70.3569 279.304C70.3569 270.007 75.772 266.805 82.7785 270.842C86.3339 272.937 89.2058 276.018 91.0466 279.712V276.044L98.3637 280.275V300.382C98.2548 301.44 98.4378 302.508 98.8928 303.47C99.3479 304.431 100.058 305.249 100.945 305.836C103.41 307.272 104.924 304.846 104.924 297.646C104.924 285.049 96.8499 271.696 84.9135 264.806C72.9771 257.916 64.9225 262.71 64.9225 275.675C65.0789 282.554 66.9745 289.282 70.4328 295.232C73.891 301.181 78.7993 306.158 84.7 309.698C87.9039 311.672 91.5421 312.831 95.2972 313.075L97.0245 319.772C92.6522 319.419 88.4271 318.028 84.7 315.715C69.173 306.729 58.9058 288.64 58.9058 272.259C58.9058 255.878 69.27 249.939 84.9135 258.983C100.033 267.698 110.339 285.146 110.339 300.712ZM91.1631 291.377C91.2008 288.915 90.6003 286.487 89.42 284.327C88.2397 282.167 86.5199 280.349 84.4283 279.052C80.5465 276.781 77.7711 278.373 77.7711 283.652C77.7211 286.117 78.3076 288.553 79.4737 290.726C80.6398 292.898 82.3462 294.733 84.4283 296.054C88.31 298.247 91.1631 296.83 91.1631 291.377Z" fill="white"/>
</g>
<path d="M140.131 400.182L62.9426 355.542C62.0556 354.923 61.0266 354.538 59.951 354.422C58.8755 354.307 57.7882 354.465 56.7901 354.882C56.5791 354.979 56.3776 355.096 56.1884 355.231L39.3998 365.072H39.5163C37.4007 366.275 36.0615 369.07 36.0615 373.049V458.874C36.0615 466.152 40.4673 474.576 45.9212 477.72L123.11 522.36C124.087 523.073 125.254 523.481 126.462 523.533C127.671 523.585 128.868 523.278 129.903 522.651L129.767 522.768L146.439 512.966C148.613 511.821 149.991 509.085 149.991 504.912V419.009C149.991 411.75 145.663 403.326 140.131 400.182Z" fill="#C10D10"/>
<path d="M147.235 408.314C145.679 404.99 143.217 402.171 140.131 400.182L62.9427 355.542C62.0557 354.923 61.0267 354.538 59.9511 354.422C58.8756 354.307 57.7883 354.465 56.7901 354.882C56.5791 354.979 56.3777 355.096 56.1885 355.231L39.3999 365.072C40.4245 364.542 41.5755 364.305 42.7261 364.387C43.8767 364.469 44.9823 364.867 45.9212 365.537L123.11 410.178C126.301 412.263 128.827 415.22 130.388 418.698L147.235 408.314Z" fill="#C10D10"/>
<path d="M132.97 514.83C132.97 518.711 131.727 521.409 129.767 522.69L146.439 512.889C148.613 511.744 149.991 509.007 149.991 504.834V419.009C149.909 415.279 148.966 411.619 147.235 408.314L130.388 418.679C132.005 421.886 132.887 425.413 132.97 429.004V514.83Z" fill="#C10D10"/>
<path opacity="0.3" d="M147.235 408.314C145.679 404.99 143.217 402.171 140.131 400.182L62.9427 355.542C62.0557 354.923 61.0267 354.538 59.9511 354.422C58.8756 354.307 57.7883 354.465 56.7901 354.882C56.5791 354.979 56.3777 355.096 56.1885 355.231L39.3999 365.072C40.4245 364.542 41.5755 364.305 42.7261 364.387C43.8767 364.469 44.9823 364.867 45.9212 365.537L123.11 410.178C126.301 412.263 128.827 415.22 130.388 418.698L147.235 408.314Z" fill="black"/>
<path opacity="0.6" d="M132.97 514.83C132.97 518.711 131.727 521.409 129.767 522.69L146.439 512.889C148.613 511.744 149.991 509.007 149.991 504.834V419.009C149.909 415.279 148.966 411.619 147.235 408.314L130.388 418.679C132.005 421.886 132.887 425.413 132.97 429.004V514.83Z" fill="black"/>
<path d="M75.8884 438.553L57.2754 408.314V449.286L75.8884 438.553Z" fill="#C10D10"/>
<path d="M93.1816 447.268L111.756 479.428V438.514L93.1816 447.268Z" fill="#C10D10"/>
<path d="M60.0894 406.936L79.207 437.99C79.2879 438.058 79.3597 438.137 79.4205 438.223C79.4373 438.3 79.4373 438.379 79.4205 438.456L85.1072 447.695L89.9206 445.424C89.9956 445.342 90.0803 445.271 90.1729 445.21C90.3626 445.1 90.575 445.033 90.794 445.016L110.203 435.914L60.0894 406.936Z" fill="#C10D10"/>
<path d="M90.3673 448.588L85.1658 451.033C84.9654 451.126 84.7463 451.173 84.5253 451.169C84.2574 451.172 83.9933 451.106 83.7586 450.976C83.524 450.847 83.3267 450.659 83.1861 450.431L77.4993 441.193L58.8281 451.984L109.077 480.981L90.3673 448.588Z" fill="#C10D10"/>
<g opacity="0.9">
<path d="M75.8884 438.553L57.2754 408.314V449.286L75.8884 438.553Z" fill="white"/>
<path d="M93.1816 447.268L111.756 479.428V438.514L93.1816 447.268Z" fill="white"/>
<path d="M60.0898 406.936L79.2075 437.99C79.2884 438.058 79.3602 438.137 79.421 438.223C79.4378 438.3 79.4378 438.379 79.421 438.456L85.1077 447.695L89.9211 445.424C89.996 445.342 90.0808 445.271 90.1734 445.21C90.3631 445.1 90.5755 445.033 90.7945 445.016L110.203 435.914L60.0898 406.936Z" fill="white"/>
<path d="M90.3673 448.587L85.1658 451.033C84.9654 451.126 84.7463 451.173 84.5253 451.169C84.2574 451.172 83.9933 451.105 83.7586 450.976C83.524 450.847 83.3267 450.659 83.1861 450.431L77.4993 441.193L58.8281 451.984L109.077 480.981L90.3673 448.587Z" fill="white"/>
</g>
<path d="M140.131 94.4555L62.9426 49.8153C62.0556 49.1962 61.0266 48.8112 59.951 48.6958C58.8755 48.5805 57.7882 48.7386 56.7901 49.1554C56.5791 49.2529 56.3776 49.3698 56.1884 49.5048L39.3998 59.345H39.5163C37.4007 60.529 36.0615 63.3432 36.0615 67.322V153.148C36.0615 160.406 40.4673 168.849 45.9212 171.993L123.11 216.634C124.087 217.347 125.254 217.755 126.462 217.807C127.671 217.858 128.868 217.552 129.903 216.925L129.767 217.022L146.439 207.317C148.613 206.172 149.991 203.436 149.991 199.263V113.224C149.991 105.965 145.663 97.522 140.131 94.4555Z" fill="#C10D10"/>
<path d="M147.235 102.529C145.679 99.1995 143.217 96.3746 140.131 94.3778L62.9427 49.8153C62.0557 49.1962 61.0267 48.8112 59.9511 48.6958C58.8756 48.5805 57.7883 48.7386 56.7901 49.1554C56.5791 49.2529 56.3777 49.3698 56.1885 49.5048L39.3999 59.345C40.4245 58.8152 41.5755 58.5783 42.7261 58.6605C43.8767 58.7427 44.9823 59.1407 45.9212 59.8108L123.11 104.451C126.301 106.537 128.827 109.494 130.388 112.971L147.235 102.529Z" fill="#C10D10"/>
<path d="M132.97 208.967C132.97 212.849 131.727 215.547 129.767 216.731L146.439 207.026C148.613 205.881 149.991 203.145 149.991 198.972V113.224C149.909 109.494 148.966 105.834 147.235 102.53L130.388 112.894C132.005 116.101 132.887 119.628 132.97 123.219V208.967Z" fill="#C10D10"/>
<path opacity="0.3" d="M147.235 102.529C145.679 99.1995 143.217 96.3746 140.131 94.3778L62.9427 49.8153C62.0557 49.1962 61.0267 48.8112 59.9511 48.6958C58.8756 48.5805 57.7883 48.7386 56.7901 49.1554C56.5791 49.2529 56.3777 49.3698 56.1885 49.5048L39.3999 59.345C40.4245 58.8152 41.5755 58.5783 42.7261 58.6605C43.8767 58.7427 44.9823 59.1407 45.9212 59.8108L123.11 104.451C126.301 106.537 128.827 109.494 130.388 112.971L147.235 102.529Z" fill="black"/>
<path opacity="0.6" d="M132.97 208.967C132.97 212.849 131.727 215.547 129.767 216.731L146.439 207.026C148.613 205.881 149.991 203.145 149.991 198.972V113.224C149.909 109.494 148.966 105.834 147.235 102.53L130.388 112.894C132.005 116.101 132.887 119.628 132.97 123.219V208.967Z" fill="black"/>
<path d="M107.718 172.09C104.749 167.199 101.76 162.386 98.7904 157.456C98.3194 156.523 97.6609 155.696 96.8561 155.028C96.0513 154.36 95.1175 153.865 94.1129 153.575C92.6766 153.283 91.2404 152.953 89.7653 152.526C89.24 152.307 88.7981 151.927 88.5038 151.44C83.6446 143.123 79.7815 134.264 76.9944 125.044C76.9351 124.847 76.9183 124.639 76.945 124.435C76.9718 124.231 77.0415 124.035 77.1496 123.86C78.0618 122.948 79.0905 122.113 80.0221 121.298C80.9538 120.483 81.439 118.6 80.7597 116.154C79.3234 110.972 77.9454 105.79 76.5092 100.627C76.2312 99.1605 75.5719 97.7927 74.5975 96.6615C73.623 95.5304 72.3679 94.6758 70.9583 94.1838C67.8283 93.3136 64.5056 93.4356 61.448 94.5331C60.264 94.9795 59.6429 96.047 59.6235 97.8908C60.1282 101.443 60.4581 104.956 61.1374 108.566C65.9249 134.599 77.4408 158.537 95.685 180.378C96.1613 181.102 96.8012 181.704 97.553 182.136C98.3048 182.568 99.1475 182.816 100.013 182.862C103.034 182.791 105.935 181.672 108.223 179.699C109.95 178.146 109.776 175.39 107.718 172.09Z" fill="#C10D10"/>
<path d="M107.486 145.636C107.08 140.054 105.541 134.612 102.964 129.644C101.039 125.762 98.59 122.164 95.6852 118.949C94.9283 118.095 94.2878 117.824 93.8996 118.464C93.5114 119.105 93.8996 120.017 94.6371 120.851L95.3941 121.725C100.759 127.917 104.14 135.578 105.098 143.715C105.089 144.308 105.148 144.901 105.273 145.481C105.517 146.149 105.908 146.752 106.418 147.247C106.826 147.538 107.292 147.247 107.622 147.247C107.505 146.451 107.525 146.044 107.486 145.636Z" fill="#C10D10"/>
<path d="M89.9016 129.702C92.3389 132.383 93.8199 135.795 94.1133 139.406C94.2411 139.955 94.4436 140.484 94.715 140.978C95.8989 141.949 96.4812 141.619 96.4812 140.396C96.0662 135.766 94.1513 131.398 91.0273 127.955C90.2898 127.198 89.6881 126.965 89.3388 127.606C89.2131 127.971 89.1995 128.366 89.2998 128.74C89.4001 129.113 89.6096 129.448 89.9016 129.702Z" fill="#C10D10"/>
<g opacity="0.9">
<path d="M107.718 172.09C104.749 167.199 101.76 162.386 98.7904 157.456C98.3194 156.523 97.6609 155.696 96.8561 155.028C96.0513 154.36 95.1175 153.865 94.1129 153.575C92.6766 153.283 91.2404 152.953 89.7653 152.526C89.24 152.307 88.7981 151.927 88.5038 151.44C83.6446 143.123 79.7815 134.264 76.9944 125.044C76.9351 124.847 76.9183 124.639 76.945 124.435C76.9718 124.231 77.0415 124.035 77.1496 123.86C78.0618 122.948 79.0905 122.113 80.0221 121.298C80.9538 120.483 81.439 118.6 80.7597 116.154C79.3234 110.972 77.9454 105.79 76.5092 100.627C76.2312 99.1605 75.5719 97.7927 74.5975 96.6615C73.623 95.5304 72.3679 94.6758 70.9583 94.1838C67.8283 93.3136 64.5056 93.4356 61.448 94.5331C60.264 94.9795 59.6429 96.047 59.6235 97.8908C60.1282 101.443 60.4581 104.956 61.1374 108.566C65.9249 134.599 77.4408 158.537 95.685 180.378C96.1613 181.102 96.8012 181.704 97.553 182.136C98.3048 182.568 99.1475 182.816 100.013 182.862C103.034 182.791 105.935 181.672 108.223 179.699C109.95 178.146 109.776 175.39 107.718 172.09Z" fill="white"/>
<path d="M107.486 145.636C107.08 140.054 105.541 134.612 102.964 129.644C101.039 125.762 98.59 122.164 95.6852 118.949C94.9283 118.095 94.2878 117.824 93.8996 118.464C93.5114 119.105 93.8996 120.017 94.6371 120.851L95.3941 121.725C100.759 127.917 104.14 135.578 105.098 143.715C105.089 144.308 105.148 144.901 105.273 145.481C105.517 146.149 105.908 146.752 106.418 147.247C106.826 147.538 107.292 147.247 107.622 147.247C107.505 146.451 107.525 146.044 107.486 145.636Z" fill="white"/>
<path d="M89.9011 129.702C92.3384 132.383 93.8194 135.795 94.1128 139.406C94.2406 139.955 94.4431 140.484 94.7145 140.978C95.8984 141.949 96.4807 141.619 96.4807 140.396C96.0657 135.766 94.1508 131.398 91.0268 127.955C90.2893 127.198 89.6876 126.965 89.3383 127.606C89.2126 127.971 89.199 128.366 89.2993 128.74C89.3996 129.113 89.6091 129.448 89.9011 129.702Z" fill="white"/>
</g>
<path d="M536.167 42.9835L554.353 53.3284V46.8847C554.353 46.4383 554.353 45.9725 554.353 45.5261C554.353 45.0797 554.353 44.6527 554.353 44.2257V43.9928C555.013 35.4724 561.476 32.1923 569.356 36.7533C572.923 38.9476 575.98 41.8791 578.322 45.3514C580.089 33.7062 589.541 29.5915 600.972 36.1711C613.666 43.5076 623.952 61.4024 623.952 75.9978V89.778C623.934 90.8803 624.206 91.968 624.741 92.9321C625.276 93.8961 626.055 94.7026 627 95.2707L637.713 101.54C640.025 102.911 641.942 104.858 643.276 107.192C644.609 109.526 645.314 112.166 645.321 114.854C645.322 115.969 645.028 117.065 644.47 118.031C643.913 118.996 643.11 119.798 642.144 120.355C641.178 120.912 640.082 121.204 638.967 121.203C637.852 121.201 636.756 120.906 635.792 120.347L536.438 62.9163C533.803 61.3856 531.613 59.1919 530.088 56.5531C528.563 53.9144 527.754 50.9224 527.743 47.8745C527.742 46.888 528.001 45.9185 528.492 45.0632C528.984 44.208 529.692 43.497 530.545 43.0016C531.399 42.5063 532.367 42.2438 533.354 42.2406C534.34 42.2375 535.31 42.4936 536.167 42.9835Z" fill="#E6E6E6"/>
<path d="M674.803 40.2857L688.021 47.8746V43.1388C688.021 42.8089 688.021 42.4789 688.021 42.149C688.021 41.819 688.021 41.5085 688.021 41.198V41.0815C688.506 34.8901 693.203 32.5028 698.928 35.8217C701.521 37.4104 703.744 39.5345 705.45 42.0519C706.75 33.6285 713.621 30.5814 721.928 35.3753C731.166 40.7127 738.639 53.6778 738.639 64.3332V74.3675C738.646 75.1541 738.857 75.9254 739.251 76.6059C739.646 77.2863 740.211 77.8526 740.89 78.2493L748.653 82.8103C750.343 83.8038 751.742 85.2225 752.713 86.9251C753.683 88.6277 754.191 90.5549 754.185 92.5147C754.184 93.3174 753.973 94.1059 753.575 94.8025C753.176 95.4991 752.602 96.0798 751.911 96.4872C751.219 96.8947 750.433 97.115 749.631 97.1263C748.828 97.1376 748.036 96.9396 747.334 96.5517L674.997 54.7841C673.081 53.6752 671.489 52.082 670.382 50.1642C669.275 48.2464 668.691 46.0714 668.689 43.857C668.688 43.1403 668.875 42.4357 669.231 41.8138C669.587 41.1919 670.1 40.6743 670.719 40.3128C671.338 39.9513 672.041 39.7586 672.758 39.7538C673.474 39.7491 674.18 39.9325 674.803 40.2857Z" fill="#E6E6E6"/>
</svg>
