<svg width="223" height="312" viewBox="0 0 223 312" fill="none" xmlns="http://www.w3.org/2000/svg">
<g opacity="0.15">
<path d="M124.78 125.42C117.32 132.51 106.02 131.82 99.3202 124.75C92.2202 117.29 92.1902 106.01 99.6402 98.9399C106.73 92.2099 118.37 92.5099 125.43 99.9799C132.17 107.08 131.86 118.69 124.78 125.42Z" fill="#8F9194"/>
<path d="M94.2181 95.6199C87.9381 101.58 78.4781 101.02 72.5181 94.7199C66.8681 88.7699 66.8081 79.2799 73.0781 73.3399C79.0581 67.6899 88.8181 67.9399 94.4781 73.9099C100.438 80.1899 100.168 89.9599 94.2081 95.6299M148.398 152.72C142.128 158.67 132.648 158.1 126.968 152.14C121.038 145.86 121.288 136.72 127.558 130.74C133.518 125.09 142.998 125.03 148.938 131.3C154.608 137.27 154.358 147.04 148.388 152.71" fill="#8F9194"/>
<path d="M127.189 93.6699C121.239 87.3899 121.789 77.9098 128.089 71.9798C134.049 66.3298 143.529 66.2699 149.489 72.5499C155.109 78.5099 154.859 88.2999 148.899 93.9299C142.629 99.8899 132.869 99.6199 127.189 93.6799M70.089 147.83C64.149 141.56 64.709 132.08 70.669 126.45C76.939 120.49 86.109 120.73 92.049 127C97.709 132.96 97.759 142.45 91.489 148.4C85.509 154.07 75.739 153.81 70.079 147.84" fill="#8F9194"/>
<path d="M68.7496 121.55C64.0596 126 56.4096 125.52 51.9396 120.81C47.4696 116.09 47.6796 108.76 52.3996 104.3C57.0996 99.8304 64.7396 99.7204 69.1996 104.43C73.6696 109.14 73.4696 117.08 68.7496 121.55Z" fill="#8F9194"/>
<path d="M116.059 171.44C111.369 175.91 104.029 175.71 99.5695 171.02C95.0895 166.31 94.9895 158.65 99.7095 154.19C104.399 149.71 112.359 149.94 116.819 154.64C121.289 159.35 120.769 166.98 116.059 171.44Z" fill="#8F9194"/>
<path d="M120.28 71.9501C124.92 67.4101 124.72 59.7501 120.2 55.1201C115.65 50.4801 108.32 50.4001 103.68 54.9401C99.0304 59.4701 98.6404 67.1001 103.17 71.7401C107.71 76.3801 115.67 76.4701 120.28 71.9501Z" fill="#8F9194"/>
<path d="M168.33 121.13C172.97 116.6 173.07 109.25 168.55 104.62C164 99.9701 156.35 99.59 151.71 104.11C147.07 108.64 146.99 116.6 151.51 121.24C156.03 125.88 163.68 125.67 168.32 121.13" fill="#8F9194"/>
<path d="M50.18 65.6401C45.74 60.9501 46.24 53.3201 50.93 48.8401C55.66 44.3701 63 44.5802 67.45 49.2902C71.92 53.9802 72.03 61.6301 67.31 66.1101C62.6 70.5801 54.66 70.3601 50.18 65.6501" fill="#8F9194"/>
<path d="M156.181 173.25C160.791 177.82 168.441 177.47 173.021 172.86C177.581 168.25 177.521 160.91 172.911 156.34C168.301 151.77 160.651 151.5 156.091 156.13C151.511 160.76 151.571 168.7 156.181 173.25Z" fill="#8F9194"/>
<path d="M157.151 49.64C161.861 45.2 169.491 45.69 173.971 50.39C178.431 55.11 178.221 62.44 173.521 66.9C168.811 71.37 161.181 71.48 156.701 66.77C152.251 62.06 152.461 54.12 157.151 49.64Z" fill="#8F9194"/>
<path d="M49.5406 155.63C44.9906 160.26 45.3406 167.91 49.9506 172.46C54.5706 177.04 61.9106 176.97 66.4606 172.36C71.0306 167.75 71.3006 160.1 66.6906 155.54C62.0606 150.97 54.1106 151.03 49.5406 155.63Z" fill="#8F9194"/>
<path d="M76.2096 46.8299C72.6296 43.0799 73.1096 37.2799 76.5696 34.0099C80.3296 30.4399 85.8196 30.5799 89.3896 34.3399C92.6696 37.8099 92.5196 43.3099 88.7696 46.8599C85.2996 50.1599 79.4896 50.2999 76.2096 46.8299Z" fill="#8F9194"/>
<path d="M33.2205 87.6001C29.6605 83.8501 29.8005 78.3301 33.5605 74.7801C37.0205 71.5201 42.8205 71.3501 46.4005 75.1201C49.6705 78.5801 49.2305 84.3901 45.7705 87.6501C42.0005 91.2201 36.5105 91.0801 33.2305 87.6101" fill="#8F9194"/>
<path d="M175.559 147.63C179.229 151.29 185.039 150.94 188.379 147.56C192.029 143.88 192.009 138.38 188.319 134.74C184.919 131.38 179.419 131.41 175.779 135.09C172.429 138.48 172.149 144.3 175.559 147.63Z" fill="#8F9194"/>
<path d="M133.89 189.77C137.57 193.42 143.07 193.38 146.74 189.7C150.07 186.3 150.34 180.52 146.66 176.87C143.26 173.53 137.46 173.83 134.12 177.23C130.49 180.93 130.52 186.43 133.9 189.77" fill="#8F9194"/>
<path d="M175.98 75.6502C179.72 72.1002 185.54 72.5602 188.82 76.0202C192.37 79.7702 192.24 85.2601 188.47 88.8401C185.02 92.1201 179.53 91.9601 175.94 88.2101C172.67 84.7701 172.53 78.9302 175.98 75.6602" fill="#8F9194"/>
<path d="M135.209 32.67C138.959 29.12 144.459 29.24 148.049 33.01C151.329 36.47 151.469 42.2599 147.699 45.8499C144.239 49.1299 138.449 48.6799 135.179 45.2199C131.619 41.4499 131.759 35.95 135.219 32.68" fill="#8F9194"/>
<path d="M75.1699 174.99C71.5199 178.67 71.8599 184.48 75.2399 187.83C78.9399 191.48 84.4299 191.46 88.0799 187.77C91.4399 184.37 91.3999 178.87 87.7099 175.23C84.3299 171.87 78.5099 171.6 75.1699 174.99Z" fill="#8F9194"/>
<path d="M33.0401 133.34C29.3901 137.04 29.4301 142.53 33.1101 146.18C36.5101 149.52 42.3001 149.79 45.9501 146.11C49.2901 142.72 48.9901 136.91 45.6001 133.57C41.9101 129.93 36.3901 129.96 33.0501 133.35" fill="#8F9194"/>
<path d="M16.1505 157.61C14.0405 159.76 14.0405 163.43 16.2005 165.56C18.6705 168 22.3205 167.98 24.4705 165.82C26.9005 163.36 26.8605 159.69 24.4205 157.24C22.2605 155.1 18.5905 155.15 16.1505 157.61Z" fill="#8F9194"/>
<path d="M39.7 7.97002C37.99 6.17002 38.08 3.20004 39.87 1.49004C41.91 -0.449958 44.9 -0.359904 46.6 1.4201C48.54 3.4701 48.46 6.45007 46.41 8.39007C44.63 10.0901 41.64 10.02 39.71 7.97002" fill="#8F9194"/>
<path d="M12.0502 15.3799C9.96024 13.1699 10.0702 9.4999 12.2502 7.4099C14.4402 5.3399 18.1302 5.43989 20.2302 7.64989C22.5802 10.1399 22.4902 13.8199 20.2902 15.8999C18.1002 17.9799 14.4302 17.8699 12.0502 15.3799Z" fill="#8F9194"/>
<path d="M177.061 220.93C178.821 222.66 181.801 222.64 183.541 220.9C185.541 218.9 185.511 215.91 183.751 214.18C181.741 212.2 178.761 212.2 176.761 214.21C175.041 215.97 175.041 218.95 177.061 220.93Z" fill="#8F9194"/>
<path d="M213.64 184.96C215.4 186.68 218.39 186.68 220.12 184.91C222.12 182.91 222.09 179.92 220.34 178.19C218.33 176.19 215.34 176.22 213.35 178.24C211.62 179.99 211.62 182.98 213.63 184.96" fill="#8F9194"/>
<path d="M205.639 212.45C207.819 214.56 211.489 214.55 213.619 212.4C215.739 210.26 215.729 206.56 213.569 204.44C211.119 202.02 207.439 202.03 205.299 204.19C203.179 206.34 203.219 210.03 205.639 212.46" fill="#8F9194"/>
<path d="M179.019 2.42005C180.799 0.720045 183.799 0.799967 185.499 2.58997C187.439 4.63997 187.369 7.61006 185.559 9.31006C183.539 11.2701 180.549 11.17 178.599 9.13001C176.899 7.33001 176.979 4.36005 179.019 2.42005Z" fill="#8F9194"/>
<path d="M214.839 39.14C216.639 37.45 219.619 37.5301 221.319 39.3101C223.249 41.3601 223.179 44.3601 221.389 46.0501C219.339 47.9901 216.359 47.91 214.419 45.87C212.729 44.08 212.789 41.09 214.839 39.15" fill="#8F9194"/>
<path d="M207.44 11.4998C209.63 9.39984 213.3 9.49979 215.39 11.6998C217.49 13.8898 217.37 17.5799 215.18 19.6599C212.68 22.0199 208.99 21.9398 206.91 19.7398C204.84 17.5598 204.94 13.8698 207.44 11.4998Z" fill="#8F9194"/>
<path d="M1.87989 176.51C0.149887 178.28 0.159886 181.25 1.90989 182.99C3.92989 184.99 6.91988 184.96 8.63988 183.2C10.6399 181.2 10.6099 178.21 8.59989 176.23C6.84989 174.5 3.85989 174.52 1.87989 176.51Z" fill="#8F9194"/>
<path d="M37.8604 213.11C36.1304 214.87 36.1404 217.83 37.8904 219.58C39.8904 221.56 42.8804 221.55 44.6204 219.8C46.5904 217.78 46.5904 214.8 44.5704 212.83C42.8204 211.08 39.8404 211.08 37.8604 213.11Z" fill="#8F9194"/>
<path d="M10.369 205.12C8.24896 207.27 8.24896 210.94 10.419 213.09C12.559 215.2 16.249 215.19 18.379 213.02C20.779 210.57 20.769 206.89 18.629 204.75C16.469 202.64 12.789 202.67 10.359 205.12" fill="#8F9194"/>
<path d="M57.3803 24.9799C55.3103 22.7999 55.4003 19.1299 57.9103 16.7399C60.1003 14.6599 63.7703 14.7398 65.8703 16.9398C68.2503 19.4698 68.1603 23.1099 65.9503 25.2099C63.4503 27.5999 59.7803 27.4999 57.3903 24.9899" fill="#8F9194"/>
<path d="M16.8413 62.98C14.7613 60.79 14.8713 57.1401 17.0613 55.0501C19.5813 52.6601 23.2313 52.7599 25.3313 54.9399C27.7013 57.4599 27.6113 61.13 25.1013 63.52C22.9013 65.6 19.2313 65.52 16.8513 62.99" fill="#8F9194"/>
<path d="M28.5705 39.0798C25.2905 35.6198 25.7605 29.8199 29.1905 26.5399C32.9605 22.9699 38.4604 23.1198 41.7304 26.5798C45.3204 30.3298 45.1804 35.8399 41.4004 39.4099C37.9504 42.6899 32.1404 42.8398 28.5604 39.0698" fill="#8F9194"/>
<path d="M197.01 166.91C199.16 169.05 202.83 169.02 205.25 166.56C207.39 164.41 207.36 160.74 205.21 158.61C202.73 156.18 199.09 156.19 196.96 158.36C194.54 160.81 194.54 164.46 197.02 166.91" fill="#8F9194"/>
<path d="M158.15 206.65C160.32 208.77 163.97 208.76 166.11 206.61C168.55 204.13 168.53 200.48 166.39 198.34C163.92 195.92 160.23 195.95 157.81 198.4C155.67 200.55 155.7 204.22 158.15 206.65Z" fill="#8F9194"/>
<path d="M182.32 195.42C185.69 198.78 191.51 198.43 194.85 195.06C198.52 191.35 198.48 185.86 195.09 182.52C191.41 178.88 185.89 178.89 182.25 182.59C178.89 185.96 178.62 191.8 182.32 195.43" fill="#8F9194"/>
<path d="M197.831 56.8298C200.021 54.7498 203.711 54.8598 206.071 57.3498C208.151 59.5598 208.041 63.2199 205.871 65.2999C203.351 67.7099 199.681 67.6099 197.601 65.3999C195.211 62.8899 195.321 59.2298 197.821 56.8398" fill="#8F9194"/>
<path d="M159.812 16.31C162.002 14.23 165.692 14.3099 167.772 16.5099C170.162 19.0299 170.052 22.6699 167.852 24.7799C165.352 27.1699 161.662 27.06 159.292 24.55C157.212 22.33 157.312 18.69 159.812 16.31Z" fill="#8F9194"/>
<path d="M183.71 28.0198C187.18 24.7298 192.99 25.2098 196.28 28.6498C199.85 32.3998 199.68 37.9097 196.24 41.1897C192.46 44.7597 186.96 44.6298 183.4 40.8498C180.12 37.3998 179.97 31.5798 183.71 28.0098" fill="#8F9194"/>
<path d="M55.8912 196.45C53.7512 198.61 53.7912 202.28 56.2412 204.7C58.4012 206.84 62.0812 206.82 64.2112 204.66C66.6512 202.2 66.6212 198.53 64.4712 196.41C62.0112 193.99 58.3511 193.99 55.9011 196.45" fill="#8F9194"/>
<path d="M27.4012 181.75C24.0312 185.14 24.3812 190.96 27.7612 194.3C31.4512 197.94 36.9512 197.91 40.3012 194.54C43.9612 190.81 43.9312 185.33 40.2412 181.67C36.8612 178.34 31.0412 178.06 27.4012 181.74" fill="#8F9194"/>
<path d="M2.97069 43.79C1.27069 42.01 1.35069 39.0299 3.13069 37.3299C5.18069 35.3699 8.17068 35.44 9.87068 37.26C11.8207 39.3 11.7307 42.2699 9.68068 44.2099C7.90068 45.9099 4.91069 45.85 2.97069 43.8" fill="#8F9194"/>
<path d="M47.3809 299.7H73.6309V310.65H30.2109V301.4L54.7109 276.39C58.6709 272.38 60.0409 268.89 60.0409 265.78C60.0409 260.96 57.0109 257.98 51.6509 257.98C46.5809 257.98 42.9109 260.58 42.9109 267.91V272.47L30.6809 271.23V268.16C30.6809 255.16 38.9509 248.13 51.5609 248.13C63.4109 248.13 72.1409 254.56 72.1409 265.86C72.1409 272.21 69.4109 276.94 64.0409 282.52L47.3809 299.69V299.7ZM112.671 311.5C94.9009 311.5 81.8209 299.23 81.8209 280.01C81.8209 260.79 95.2009 248.22 113.311 248.22C125.201 248.22 135.041 253.46 140.411 262.71L129.201 268.68C125.961 262.37 120.171 259.35 113.311 259.35C102.661 259.35 94.6509 266.68 94.6509 279.72C94.6509 292.76 102.151 300.39 113.781 300.39C121.661 300.39 128.911 296.47 130.661 287.48H113.831V277.21H142.761V310.66H132.701V302.14C128.741 307.98 122.091 311.51 112.671 311.51V311.5ZM174.201 248.26C186.941 248.26 196.831 257.46 196.831 269.69C196.831 274.51 195.251 279.36 191.331 284.69L172.151 310.64H158.171L174.111 289.8C173.171 289.93 172.281 289.97 171.341 289.97C160.901 289.97 151.441 282.04 151.401 269.73C151.311 257.12 161.971 248.25 174.201 248.25V248.26ZM185.281 270.17C185.411 263.74 181.231 259.3 174.541 259.3C167.851 259.3 163.421 263.69 163.381 270.04C163.291 276.43 167.731 281.08 174.421 281.08C181.111 281.08 185.201 276.31 185.291 270.17H185.281Z" fill="#8F9194"/>
</g>
</svg>
