<svg width="234" height="327" viewBox="0 0 234 327" fill="none" xmlns="http://www.w3.org/2000/svg">
<path d="M98.304 100.267C91.7134 106.522 81.7795 105.934 75.5258 99.3243C69.5908 93.0848 69.5261 83.1259 76.1167 76.8864C82.3963 70.9576 92.6412 71.2192 98.5891 77.4795C104.851 84.0687 104.56 94.3228 98.304 100.267ZM155.186 160.191C148.603 166.431 138.654 165.84 132.69 159.588C126.46 152.993 126.724 143.405 133.31 137.134C139.566 131.203 149.516 131.146 155.759 137.725C161.709 143.993 161.445 154.244 155.186 160.191Z" fill="white"/>
<path d="M130.386 131.54C122.549 138.976 110.695 138.253 103.653 130.833C96.1997 123.003 96.1686 111.169 103.993 103.748C111.434 96.6825 123.653 97.0063 131.065 104.841C138.138 112.29 137.812 124.477 130.386 131.54Z" fill="white"/>
<path d="M71.5632 127.484C66.6338 132.149 58.6048 131.646 53.9165 126.704C49.2281 121.747 49.4432 114.059 54.3959 109.382C59.3331 104.691 67.3491 104.575 72.0349 109.516C76.731 114.456 76.5159 122.793 71.5632 127.484Z" fill="white"/>
<path d="M121.235 179.824C116.306 184.518 108.601 184.308 103.92 179.381C99.2186 174.442 99.115 166.4 104.068 161.725C108.997 157.021 117.353 157.27 122.033 162.199C126.724 167.138 126.18 175.149 121.235 179.824Z" fill="white"/>
<path d="M59.6229 26.1544C57.4459 23.8674 57.5418 20.0159 60.1749 17.5087C62.4789 15.3253 66.3302 15.4133 68.5305 17.7159C71.0341 20.3707 70.9382 24.1911 68.6134 26.3901C65.9907 28.8973 62.1394 28.7937 59.6229 26.1544Z" fill="white"/>
<path d="M17.0575 66.0289C14.8727 63.7263 14.9842 59.9059 17.2856 57.7069C19.9343 55.1972 23.7648 55.3033 25.9651 57.5904C28.4583 60.2323 28.3624 64.0812 25.7215 66.5884C23.4123 68.7718 19.5611 68.6863 17.0575 66.0289Z" fill="white"/>
<path d="M2.49729 45.8908C0.711621 44.0182 0.799738 40.8919 2.66575 39.1074C4.82202 37.056 7.95795 37.1285 9.73843 39.0323C11.7833 41.1717 11.6926 44.285 9.53887 46.3208C7.67028 48.1053 4.53434 48.0458 2.49729 45.8908Z" fill="white"/>
<path d="M41.0667 8.3035C39.2733 6.41533 39.3614 3.30205 41.2429 1.50193C43.3836 -0.533874 46.5196 -0.443221 48.3052 1.42941C50.3423 3.58437 50.2542 6.7106 48.1057 8.74641C46.2345 10.531 43.0986 10.4585 41.0667 8.3035Z" fill="white"/>
<path d="M12.032 16.0762C9.8394 13.7607 9.95085 9.90924 12.2393 7.71284C14.5433 5.54494 18.4101 5.64855 20.6156 7.96408C23.0881 10.5749 22.987 14.4393 20.683 16.6227C18.379 18.8062 14.5277 18.6896 12.032 16.0762Z" fill="white"/>
<path d="M79.3951 49.0766C75.6398 45.137 76.14 39.0607 79.7735 35.6236C83.7206 31.8784 89.4871 32.0234 93.2347 35.9655C96.6738 39.6072 96.5183 45.3753 92.5867 49.1076C88.9454 52.5732 82.842 52.7208 79.3951 49.0766Z" fill="white"/>
<path d="M34.261 91.8596C30.5186 87.9201 30.6741 82.1365 34.616 78.4041C38.247 74.9852 44.3426 74.8065 48.0928 78.759C51.5241 82.3903 51.0602 88.4822 47.4293 91.9037C43.4744 95.6489 37.7027 95.5013 34.261 91.8596Z" fill="white"/>
<path d="M29.3755 40.9489C25.9363 37.3228 26.4236 31.2283 30.0312 27.7913C33.9887 24.046 39.7655 24.2066 43.1995 27.8379C46.9652 31.7774 46.8175 37.5585 42.8522 41.3038C39.229 44.7408 33.1334 44.904 29.3755 40.9489Z" fill="white"/>
<path d="M52.0657 68.8158C47.4007 63.8894 47.9242 55.8913 52.8561 51.1851C57.8244 46.4944 65.5294 46.7146 70.1996 51.659C74.8932 56.5854 75.0098 64.6121 70.0519 69.3027C65.1044 73.9934 56.767 73.7603 52.0657 68.8158Z" fill="white"/>
<path d="M206.229 175.074C208.487 177.317 212.338 177.286 214.878 174.706C217.122 172.448 217.091 168.599 214.834 166.369C212.234 163.817 208.412 163.833 206.167 166.102C203.63 168.671 203.63 172.507 206.229 175.074Z" fill="white"/>
<path d="M165.429 216.777C167.704 219.004 171.54 218.989 173.787 216.733C176.353 214.135 176.324 210.302 174.08 208.056C171.483 205.52 167.616 205.549 165.074 208.116C162.832 210.377 162.863 214.226 165.429 216.777Z" fill="white"/>
<path d="M185.284 231.753C187.129 233.566 190.257 233.55 192.089 231.722C194.186 229.626 194.155 226.487 192.31 224.669C190.2 222.589 187.072 222.589 184.973 224.7C183.171 226.544 183.171 229.673 185.284 231.753Z" fill="white"/>
<path d="M223.689 194.015C225.535 195.815 228.681 195.815 230.495 193.958C232.592 191.86 232.563 188.721 230.731 186.905C228.621 184.81 225.477 184.839 223.396 186.962C221.58 188.794 221.58 191.935 223.689 194.015Z" fill="white"/>
<path d="M215.292 222.856C217.581 225.068 221.432 225.055 223.674 222.799C225.903 220.556 225.887 216.676 223.617 214.448C221.048 211.91 217.182 211.923 214.937 214.182C212.708 216.438 212.755 220.305 215.292 222.856Z" fill="white"/>
<path d="M183.705 154.848C187.556 158.684 193.654 158.316 197.166 154.775C201.002 150.911 200.973 145.143 197.107 141.323C193.535 137.797 187.766 137.826 183.941 141.693C180.427 145.246 180.131 151.354 183.705 154.848Z" fill="white"/>
<path d="M139.952 199.061C143.819 202.894 149.591 202.853 153.445 198.986C156.943 195.417 157.223 189.353 153.356 185.52C149.783 182.01 143.7 182.334 140.188 185.901C136.381 189.78 136.41 195.551 139.952 199.061Z" fill="white"/>
<path d="M190.804 204.992C194.347 208.517 200.458 208.149 203.956 204.611C207.808 200.716 207.764 194.961 204.208 191.451C200.341 187.631 194.551 187.644 190.731 191.524C187.201 195.062 186.921 201.185 190.804 204.992Z" fill="white"/>
<path d="M163.363 181.728C168.204 186.522 176.236 186.152 181.046 181.314C185.83 176.475 185.768 168.775 180.927 163.983C176.086 159.186 168.057 158.907 163.272 163.761C158.462 168.614 158.522 176.947 163.363 181.728Z" fill="white"/>
<path d="M125.662 75.4386C130.534 70.6728 130.327 62.6358 125.574 57.7819C120.792 52.9126 113.102 52.8271 108.23 57.5929C103.353 62.3431 102.938 70.3516 107.699 75.221C112.467 80.0878 120.82 80.1888 125.662 75.4386Z" fill="white"/>
<path d="M176.116 127.044C180.989 122.293 181.09 114.58 176.352 109.721C171.571 104.839 163.542 104.44 158.669 109.19C153.8 113.94 153.711 122.293 158.465 127.16C163.215 132.029 171.244 131.809 176.116 127.044Z" fill="white"/>
<path d="M132.926 98.2313C126.683 91.6369 127.255 81.6962 133.869 75.4696C140.128 69.5409 150.078 69.4813 156.337 76.0627C162.241 82.3152 161.976 92.5849 155.717 98.4981C149.134 104.751 138.889 104.471 132.926 98.2313ZM72.9676 155.055C66.7294 148.476 67.3203 138.533 73.5792 132.617C80.1621 126.365 89.7927 126.613 96.0309 133.195C101.971 139.45 102.031 149.406 95.4478 155.646C89.1733 161.593 78.9129 161.326 72.9676 155.055Z" fill="white"/>
<path d="M207.085 59.5667C209.389 57.3832 213.255 57.4998 215.736 60.1106C217.92 62.4287 217.801 66.2646 215.528 68.4481C212.885 70.9734 209.034 70.8672 206.849 68.5517C204.337 65.9227 204.457 62.0739 207.085 59.5667Z" fill="white"/>
<path d="M167.172 17.0502C169.474 14.8668 173.343 14.9548 175.528 17.2574C178.037 19.8993 177.92 23.7171 175.616 25.9342C172.988 28.4414 169.121 28.3223 166.626 25.6959C164.441 23.3623 164.544 19.5445 167.172 17.0502Z" fill="white"/>
<path d="M187.336 2.47585C189.21 0.69128 192.353 0.779344 194.139 2.65198C196.176 4.80693 196.104 7.92021 194.199 9.70479C192.074 11.7561 188.943 11.6525 186.893 9.51312C185.107 7.62494 185.195 4.51166 187.336 2.47585Z" fill="white"/>
<path d="M224.946 41.0085C226.836 39.2368 229.966 39.3146 231.752 41.1846C233.773 43.3395 233.701 46.4813 231.824 48.2529C229.668 50.2862 226.54 50.2007 224.503 48.0613C222.73 46.186 222.792 43.0443 224.946 41.0085Z" fill="white"/>
<path d="M217.182 12.0074C219.486 9.80841 223.337 9.91201 225.524 12.2146C227.725 14.5172 227.605 18.3816 225.301 20.565C222.673 23.0438 218.807 22.9557 216.622 20.6531C214.45 18.3635 214.554 14.4991 217.182 12.0074Z" fill="white"/>
<path d="M184.145 79.3185C188.072 75.5888 194.183 76.0731 197.622 79.7019C201.354 83.6414 201.209 89.394 197.252 93.1548C193.634 96.5918 187.862 96.4312 184.099 92.4891C180.662 88.8785 180.515 82.7556 184.145 79.3185Z" fill="white"/>
<path d="M141.339 34.2226C145.281 30.4929 151.052 30.6224 154.816 34.5775C158.255 38.2062 158.402 44.2851 154.445 48.0459C150.817 51.483 144.734 51.0116 141.295 47.3829C137.56 43.4278 137.708 37.6597 141.339 34.2226Z" fill="white"/>
<path d="M192.263 29.3377C195.909 25.8877 202.007 26.3876 205.462 30.0034C209.21 33.9429 209.034 39.724 205.416 43.1636C201.445 46.9089 195.673 46.7768 191.939 42.8088C188.5 39.193 188.339 33.0856 192.263 29.3377Z" fill="white"/>
<path d="M164.379 52.0269C169.324 47.3674 177.34 47.8828 182.033 52.8117C186.714 57.7691 186.491 65.4539 181.559 70.1316C176.614 74.8249 168.598 74.9388 163.905 69.9969C159.229 65.0525 159.449 56.7202 164.379 52.0269Z" fill="white"/>
<path d="M58.0654 206.07C55.821 208.341 55.8573 212.19 58.4283 214.728C60.7012 216.971 64.555 216.956 66.7916 214.684C69.3522 212.102 69.3237 208.253 67.0637 206.023C64.4798 203.485 60.6416 203.485 58.0654 206.07Z" fill="white"/>
<path d="M16.3346 165.322C14.1213 167.581 14.1213 171.43 16.3916 173.66C18.9832 176.224 22.8189 176.196 25.0711 173.937C27.6239 171.357 27.5798 167.506 25.0193 164.939C22.749 162.696 18.8977 162.743 16.3346 165.322Z" fill="white"/>
<path d="M1.35193 185.149C-0.46224 187.009 -0.449282 190.12 1.38303 191.948C3.50043 194.046 6.64414 194.015 8.45313 192.171C10.5576 190.076 10.5265 186.936 8.40907 184.854C6.57157 183.041 3.43305 183.057 1.35193 185.149Z" fill="white"/>
<path d="M39.1335 223.55C37.3167 225.394 37.3245 228.507 39.1698 230.336C41.2742 232.416 44.4101 232.403 46.2321 230.572C48.3054 228.448 48.3054 225.322 46.1803 223.257C44.3454 221.424 41.2146 221.424 39.1335 223.55Z" fill="white"/>
<path d="M10.2697 215.168C8.04866 217.427 8.04866 221.276 10.3216 223.532C12.5711 225.744 16.4379 225.731 18.6823 223.459C21.1988 220.893 21.1911 217.028 18.9493 214.785C16.6815 212.573 12.8225 212.604 10.2697 215.168Z" fill="white"/>
<path d="M78.3093 183.557C74.4788 187.421 74.8339 193.515 78.3845 197.025C82.272 200.858 88.0385 200.83 91.8612 196.965C95.3885 193.396 95.3522 187.631 91.4776 183.808C87.9322 180.28 81.8159 180 78.3093 183.557Z" fill="white"/>
<path d="M34.0721 139.846C30.2416 143.726 30.2856 149.494 34.1446 153.315C37.716 156.824 43.7986 157.107 47.6213 153.242C51.1331 149.686 50.8091 143.591 47.2507 140.082C43.3788 136.261 37.5838 136.29 34.0721 139.846Z" fill="white"/>
<path d="M28.1447 190.651C24.6097 194.207 24.9777 200.312 28.5231 203.824C32.3977 207.647 38.1693 207.616 41.6914 204.078C45.5349 200.167 45.5064 194.414 41.624 190.578C38.0709 187.082 31.9597 186.786 28.1447 190.651Z" fill="white"/>
<path d="M51.4 163.243C46.6183 168.096 46.9863 176.123 51.8276 180.899C56.6766 185.706 64.3894 185.634 69.1581 180.796C73.9553 175.957 74.243 167.933 69.4017 163.152C64.5449 158.36 56.1972 158.42 51.4 163.243Z" fill="white"/>
<path d="M49.131 314.405H76.6913V325.897H31.1001V316.194L56.826 289.947C60.9869 285.744 62.4186 282.078 62.4186 278.814C62.4186 273.761 59.242 270.631 53.6048 270.631C48.2806 270.631 44.4327 273.359 44.4327 281.05V285.834L31.5921 284.537V281.318C31.5921 267.68 40.2718 260.303 53.5154 260.303C65.9533 260.303 75.1254 267.054 75.1254 278.904C75.1254 285.566 72.262 290.529 66.6244 296.387L49.131 314.405ZM117.674 326.791C99.0172 326.791 85.2819 313.914 85.2819 293.748C85.2819 273.314 99.3305 260.391 118.346 260.391C130.828 260.391 141.164 265.891 146.801 275.594L135.034 281.854C131.633 275.236 125.549 272.061 118.345 272.061C107.16 272.061 98.7487 279.752 98.7487 293.435C98.7487 306.625 106.623 315.121 118.838 315.121C127.114 315.121 134.721 311.007 136.555 301.572H118.882V290.796H149.262V325.896H138.703V316.954C134.542 323.08 127.562 326.791 117.674 326.791ZM182.28 260.436C195.658 260.436 206.038 270.094 206.038 282.927C206.038 287.979 204.382 293.077 200.266 298.666L180.133 325.896H165.458L182.191 304.031C181.206 304.166 180.267 304.21 179.282 304.21C168.321 304.21 158.388 295.894 158.344 282.971C158.254 269.736 169.44 260.436 182.28 260.436ZM193.913 283.419C194.047 276.667 189.663 272.017 182.639 272.017C175.838 272.017 170.961 276.623 170.916 283.285C170.827 289.992 175.48 294.866 182.504 294.866C189.35 294.866 193.824 289.858 193.913 283.419Z" fill="white"/>
</svg>
