<svg width="136" height="162" viewBox="0 0 136 162" fill="none" xmlns="http://www.w3.org/2000/svg">
<path d="M57.2123 49.5826C53.3766 52.6758 47.5951 52.385 43.9555 49.1164C40.5014 46.0309 40.4637 41.1062 44.2994 38.0207C47.9541 35.089 53.9166 35.2183 57.3782 38.314C61.0224 41.5724 60.8534 46.6432 57.2123 49.5826ZM90.3173 79.2155C86.4861 82.301 80.6956 82.009 77.2249 78.9171C73.5989 75.6561 73.7528 70.9146 77.5854 67.8137C81.2266 64.8807 87.0171 64.8525 90.6507 68.1057C94.1138 71.2053 93.96 76.2748 90.3173 79.2155Z" fill="white"/>
<path d="M75.8838 65.0472C71.3226 68.7244 64.4234 68.3671 60.3253 64.6976C55.9873 60.8257 55.9692 54.9736 60.5229 51.3041C64.8533 47.8101 71.9651 47.9702 76.279 51.8446C80.3952 55.5282 80.2052 61.5545 75.8838 65.0472Z" fill="white"/>
<path d="M41.6492 63.0415C38.7804 65.3482 34.1075 65.0997 31.379 62.6559C28.6504 60.2045 28.7756 56.403 31.658 54.0899C34.5314 51.7703 39.1967 51.7127 41.9238 54.1565C44.6569 56.599 44.5317 60.7219 41.6492 63.0415Z" fill="white"/>
<path d="M70.5582 88.9241C67.6893 91.245 63.205 91.1412 60.481 88.7051C57.7449 86.2626 57.6845 82.2857 60.567 79.9738C63.4358 77.6479 68.2987 77.7708 71.0228 80.2082C73.7529 82.6507 73.4361 86.6123 70.5582 88.9241Z" fill="white"/>
<path d="M34.7006 12.9334C33.4336 11.8024 33.4894 9.89785 35.0218 8.65802C36.3628 7.5783 38.6042 7.62184 39.8847 8.76049C41.3418 10.0733 41.286 11.9625 39.933 13.0499C38.4066 14.2898 36.1652 14.2385 34.7006 12.9334Z" fill="white"/>
<path d="M9.92732 32.6515C8.65579 31.5129 8.72065 29.6237 10.0601 28.5363C11.6016 27.2952 13.8309 27.3477 15.1115 28.4786C16.5625 29.7851 16.5067 31.6883 14.9697 32.9282C13.6258 34.0079 11.3844 33.9656 9.92732 32.6515Z" fill="white"/>
<path d="M1.45352 22.6934C0.414275 21.7673 0.465559 20.2214 1.55156 19.3389C2.8065 18.3245 4.63159 18.3604 5.66782 19.3018C6.8579 20.3597 6.80511 21.8993 5.55168 22.906C4.46417 23.7885 2.63908 23.759 1.45352 22.6934Z" fill="white"/>
<path d="M23.9007 4.10613C22.857 3.17242 22.9083 1.63288 24.0033 0.742715C25.2492 -0.264004 27.0743 -0.219175 28.1135 0.706852C29.2991 1.77249 29.2478 3.31843 27.9974 4.32515C26.9084 5.20763 25.0833 5.17176 23.9007 4.10613Z" fill="white"/>
<path d="M7.00286 7.94979C5.7268 6.80474 5.79166 4.90018 7.12352 3.81405C8.46444 2.74201 10.7149 2.79324 11.9985 3.93829C13.4374 5.22934 13.3786 7.14032 12.0377 8.22004C10.6968 9.29977 8.45539 9.24213 7.00286 7.94979Z" fill="white"/>
<path d="M46.2074 24.2687C44.0218 22.3205 44.3129 19.3158 46.4276 17.6161C48.7248 15.7641 52.0809 15.8358 54.2619 17.7852C56.2635 19.586 56.173 22.4384 53.8848 24.284C51.7656 25.9978 48.2135 26.0708 46.2074 24.2687Z" fill="white"/>
<path d="M19.9399 45.4252C17.7618 43.4771 17.8523 40.617 20.1465 38.7713C22.2597 37.0807 25.8073 36.9923 27.9899 38.9468C29.9869 40.7425 29.7169 43.755 27.6037 45.4469C25.302 47.299 21.9429 47.226 19.9399 45.4252Z" fill="white"/>
<path d="M17.0965 20.2494C15.0949 18.4563 15.3785 15.4425 17.4781 13.7429C19.7813 11.8908 23.1434 11.9702 25.142 13.7659C27.3336 15.7141 27.2476 18.5728 24.9398 20.4249C22.8312 22.1245 19.2836 22.2052 17.0965 20.2494Z" fill="white"/>
<path d="M30.302 34.0298C27.587 31.5936 27.8917 27.6385 30.7621 25.3113C33.6536 22.9917 38.1379 23.1006 40.8559 25.5456C43.5875 27.9818 43.6554 31.951 40.7699 34.2705C37.8905 36.5901 33.0382 36.4748 30.302 34.0298Z" fill="white"/>
<path d="M120.024 86.575C121.338 87.6842 123.579 87.6689 125.057 86.3932C126.364 85.2763 126.345 83.373 125.032 82.2702C123.519 81.0086 121.294 81.0163 119.988 82.1383C118.511 83.4089 118.511 85.3058 120.024 86.575Z" fill="white"/>
<path d="M96.2783 107.197C97.6026 108.299 99.8349 108.291 101.143 107.176C102.636 105.891 102.619 103.995 101.313 102.885C99.8018 101.631 97.5513 101.645 96.0716 102.914C94.7669 104.033 94.785 105.936 96.2783 107.197Z" fill="white"/>
<path d="M107.834 114.603C108.908 115.5 110.728 115.492 111.795 114.588C113.015 113.552 112.997 111.999 111.923 111.1C110.695 110.072 108.874 110.072 107.653 111.115C106.604 112.027 106.604 113.575 107.834 114.603Z" fill="white"/>
<path d="M130.186 95.9415C131.259 96.8316 133.091 96.8316 134.146 95.9133C135.367 94.8758 135.35 93.3235 134.284 92.4256C133.056 91.3895 131.226 91.4035 130.015 92.4538C128.958 93.3593 128.958 94.913 130.186 95.9415Z" fill="white"/>
<path d="M125.299 110.203C126.631 111.297 128.872 111.291 130.177 110.175C131.474 109.066 131.465 107.147 130.143 106.046C128.649 104.791 126.398 104.797 125.092 105.914C123.795 107.03 123.822 108.942 125.299 110.203Z" fill="white"/>
<path d="M106.915 76.5731C109.156 78.47 112.706 78.2881 114.749 76.5372C116.982 74.6263 116.965 71.7739 114.715 69.8847C112.636 68.1415 109.279 68.1556 107.052 70.0679C105.007 71.8251 104.835 74.8453 106.915 76.5731Z" fill="white"/>
<path d="M81.4513 98.4367C83.7018 100.332 87.0609 100.312 89.3038 98.3995C91.34 96.6346 91.5029 93.6362 89.2525 91.7406C87.1725 90.0051 83.6324 90.1652 81.5886 91.9289C79.3728 93.8475 79.3894 96.7012 81.4513 98.4367Z" fill="white"/>
<path d="M111.046 101.37C113.108 103.113 116.665 102.931 118.701 101.181C120.943 99.255 120.917 96.409 118.847 94.6735C116.597 92.7843 113.227 92.7907 111.004 94.7093C108.95 96.4589 108.787 99.4868 111.046 101.37Z" fill="white"/>
<path d="M95.0763 89.8654C97.8939 92.2362 102.568 92.053 105.368 89.6604C108.152 87.2679 108.116 83.46 105.298 81.0905C102.481 78.7185 97.8079 78.5801 95.0235 80.9804C92.224 83.3806 92.2587 87.501 95.0763 89.8654Z" fill="white"/>
<path d="M73.1344 37.3049C75.9701 34.9482 75.8494 30.9738 73.0831 28.5736C70.3002 26.1657 65.825 26.1234 62.9893 28.4801C60.1506 30.8291 59.9093 34.7894 62.6801 37.1973C65.4554 39.6039 70.3168 39.6539 73.1344 37.3049Z" fill="white"/>
<path d="M102.498 62.8237C105.334 60.4747 105.393 56.6604 102.636 54.2576C99.8528 51.8433 95.18 51.6461 92.3443 53.9951C89.5102 56.3441 89.4589 60.4747 92.2252 62.8813C94.9899 65.2893 99.6628 65.1804 102.498 62.8237Z" fill="white"/>
<path d="M77.3623 48.576C73.7287 45.3151 74.0621 40.3993 77.9114 37.3203C81.554 34.3885 87.3445 34.359 90.9872 37.6136C94.4232 40.7055 94.2693 45.7839 90.6267 48.708C86.7955 51.7999 80.833 51.6615 77.3623 48.576ZM42.4669 76.6758C38.8363 73.4225 39.1802 68.5055 42.8229 65.5801C46.6541 62.4882 52.259 62.6112 55.8896 65.8657C59.3467 68.9589 59.3814 73.8823 55.5502 76.9678C51.8986 79.9086 45.927 79.7766 42.4669 76.6758Z" fill="white"/>
<path d="M120.522 29.456C121.863 28.3763 124.113 28.434 125.557 29.725C126.828 30.8713 126.759 32.7682 125.436 33.848C123.897 35.0967 121.656 35.0442 120.384 33.8992C118.923 32.5992 118.992 30.6959 120.522 29.456Z" fill="white"/>
<path d="M97.2934 8.43146C98.6328 7.35173 100.885 7.39528 102.156 8.53392C103.616 9.84035 103.548 11.7283 102.208 12.8246C100.678 14.0645 98.4277 14.0056 96.9751 12.7068C95.7036 11.5528 95.7639 9.66488 97.2934 8.43146Z" fill="white"/>
<path d="M109.028 1.22439C110.119 0.341914 111.949 0.385462 112.988 1.31149C114.173 2.37713 114.131 3.91666 113.022 4.79914C111.786 5.81355 109.964 5.76231 108.77 4.70436C107.731 3.77065 107.782 2.23111 109.028 1.22439Z" fill="white"/>
<path d="M130.917 20.2791C132.017 19.403 133.839 19.4414 134.878 20.3662C136.055 21.4318 136.012 22.9854 134.92 23.8615C133.665 24.8669 131.845 24.8247 130.659 23.7667C129.628 22.8394 129.664 21.2858 130.917 20.2791Z" fill="white"/>
<path d="M126.399 5.93785C127.739 4.85044 129.981 4.90167 131.254 6.04032C132.534 7.17896 132.465 9.08993 131.124 10.1697C129.595 11.3954 127.344 11.3518 126.073 10.2132C124.809 9.08097 124.869 7.16999 126.399 5.93785Z" fill="white"/>
<path d="M107.171 39.2235C109.456 37.3791 113.013 37.6186 115.015 39.413C117.187 41.3611 117.102 44.2058 114.799 46.0656C112.693 47.7652 109.334 47.6858 107.144 45.7364C105.144 43.9509 105.058 40.9231 107.171 39.2235Z" fill="white"/>
<path d="M82.2583 16.9232C84.5525 15.0788 87.9116 15.1429 90.1017 17.0987C92.1032 18.8931 92.1892 21.8992 89.886 23.7589C87.7743 25.4586 84.2342 25.2254 82.2327 23.431C80.0591 21.4752 80.1451 18.6229 82.2583 16.9232Z" fill="white"/>
<path d="M111.896 14.5076C114.018 12.8016 117.567 13.0488 119.578 14.8368C121.759 16.7849 121.656 19.6437 119.551 21.3446C117.24 23.1966 113.881 23.1313 111.707 21.1691C109.706 19.3811 109.612 16.3609 111.896 14.5076Z" fill="white"/>
<path d="M95.6676 25.7277C98.5455 23.4235 103.211 23.6784 105.942 26.1158C108.667 28.5673 108.537 32.3674 105.666 34.6806C102.789 37.0014 98.1232 37.0578 95.3916 34.614C92.6706 32.1689 92.7988 28.0485 95.6676 25.7277Z" fill="white"/>
<path d="M33.7938 101.903C32.4876 103.026 32.5087 104.929 34.005 106.184C35.3278 107.293 37.5707 107.286 38.8724 106.162C40.3627 104.886 40.3461 102.982 39.0308 101.879C37.527 100.624 35.2931 100.624 33.7938 101.903Z" fill="white"/>
<path d="M9.50642 81.7526C8.21829 82.8695 8.2183 84.7728 9.5396 85.8755C11.0479 87.1435 13.2803 87.1295 14.591 86.0126C16.0767 84.7369 16.0511 82.8323 14.5609 81.563C13.2396 80.4539 10.9982 80.4769 9.50642 81.7526Z" fill="white"/>
<path d="M0.786817 91.5572C-0.269021 92.4769 -0.261479 94.0151 0.804917 94.9194C2.03723 95.9568 3.86685 95.9415 4.91967 95.0295C6.14444 93.9933 6.12634 92.441 4.89402 91.4112C3.82461 90.5147 1.99801 90.5223 0.786817 91.5572Z" fill="white"/>
<path d="M22.7755 110.547C21.7182 111.459 21.7227 112.998 22.7966 113.903C24.0214 114.931 25.8465 114.925 26.9069 114.019C28.1135 112.969 28.1135 111.423 26.8767 110.402C25.8088 109.495 23.9867 109.495 22.7755 110.547Z" fill="white"/>
<path d="M5.97698 106.402C4.68433 107.519 4.68433 109.422 6.00714 110.538C7.31638 111.632 9.56682 111.625 10.873 110.502C12.3376 109.233 12.3331 107.322 11.0284 106.212C9.70861 105.119 7.46269 105.134 5.97698 106.402Z" fill="white"/>
<path d="M45.5753 90.7697C43.3459 92.6807 43.5526 95.6944 45.619 97.4299C47.8815 99.3255 51.2376 99.3114 53.4624 97.4005C55.5152 95.6355 55.4941 92.7844 53.2391 90.894C51.1757 89.1495 47.616 89.0112 45.5753 90.7697Z" fill="white"/>
<path d="M19.8296 69.1546C17.6002 71.0733 17.6259 73.9257 19.8718 75.8149C21.9503 77.5504 25.4904 77.69 27.7152 75.779C29.759 74.0204 29.5704 71.0067 27.4995 69.2712C25.246 67.382 21.8734 67.3961 19.8296 69.1546Z" fill="white"/>
<path d="M16.3799 94.2778C14.3225 96.0364 14.5367 99.0552 16.6001 100.792C18.8551 102.682 22.2142 102.667 24.264 100.918C26.5009 98.9835 26.4843 96.1388 24.2248 94.2419C22.1568 92.5128 18.6002 92.3668 16.3799 94.2778Z" fill="white"/>
<path d="M29.9144 80.7241C27.1315 83.1244 27.3457 87.0936 30.1633 89.4554C32.9854 91.8326 37.4742 91.7967 40.2495 89.4042C43.0415 87.0116 43.2089 83.0437 40.3913 80.6793C37.5647 78.3098 32.7063 78.3392 29.9144 80.7241Z" fill="white"/>
<path d="M28.594 155.475H44.6339V161.158H18.1001V156.36L33.0724 143.381C35.494 141.302 36.3273 139.489 36.3273 137.875C36.3273 135.377 34.4785 133.829 31.1977 133.829C28.0991 133.829 25.8596 135.178 25.8596 138.981V141.347L18.3865 140.705V139.113C18.3865 132.369 23.4379 128.721 31.1457 128.721C38.3844 128.721 43.7225 132.06 43.7225 137.919C43.7225 141.214 42.056 143.668 38.775 146.565L28.594 155.475ZM68.4857 161.6C57.6274 161.6 49.6335 155.232 49.6335 145.26C49.6335 135.155 57.8098 128.765 68.8764 128.765C76.1412 128.765 82.1563 131.485 85.4371 136.283L78.5887 139.378C76.6097 136.106 73.0685 134.536 68.8761 134.536C62.3664 134.536 57.4711 138.339 57.4711 145.105C57.4711 151.628 62.0541 155.829 69.1627 155.829C73.9798 155.829 78.4066 153.795 79.4742 149.129H69.1889V143.8H86.8695V161.158H80.7242V156.735C78.3026 159.765 74.2403 161.6 68.4857 161.6ZM106.086 128.787C113.872 128.787 119.913 133.563 119.913 139.909C119.913 142.407 118.949 144.928 116.553 147.692L104.836 161.158H96.2953L106.034 150.345C105.461 150.412 104.914 150.434 104.341 150.434C97.9616 150.434 92.1811 146.321 92.155 139.931C92.1029 133.386 98.6129 128.787 106.086 128.787ZM112.856 140.152C112.934 136.814 110.383 134.514 106.295 134.514C102.337 134.514 99.4984 136.792 99.4723 140.086C99.4202 143.403 102.128 145.813 106.216 145.813C110.2 145.813 112.804 143.336 112.856 140.152Z" fill="white"/>
</svg>
