<svg width="85" height="99" viewBox="0 0 85 99" fill="none" xmlns="http://www.w3.org/2000/svg">
<path d="M57.5206 98.2802C54.4306 97.5302 51.2806 97.0101 48.4506 95.4301C45.9706 94.0501 43.7006 92.4202 41.8506 90.2702C41.0406 89.3302 40.5106 89.1502 40.0806 90.5202C39.9706 90.8802 39.7606 91.2202 39.6406 91.5802C39.1006 93.2202 38.1306 93.5301 36.5406 92.8501C28.8006 89.5501 21.0306 86.3201 13.2606 83.0701C9.67057 81.5701 6.10057 80.0402 2.49057 78.5802C0.990567 77.9802 0.550564 77.1301 1.28056 75.6201C2.00056 74.1301 2.58057 72.5701 3.22057 71.0401C3.62057 70.0701 4.34057 69.5601 5.33057 70.0001C6.32057 70.4401 6.03057 71.3301 5.79057 72.1601C5.41057 73.5301 3.82057 74.9102 4.66057 76.1502C5.33057 77.1302 7.09056 77.3801 8.38056 77.9201C17.1506 81.6001 25.9106 85.2901 34.7006 88.9201C35.5006 89.2501 36.5706 90.2401 37.2906 89.2401C38.1006 88.1201 38.9606 86.8001 38.0806 85.1801C37.4206 83.9601 36.9406 82.6401 36.3006 81.1601C35.0906 82.8501 33.7506 82.4001 32.2406 81.7501C25.9706 79.0501 19.6606 76.4402 13.3706 73.7802C10.8206 72.7102 10.6706 72.3201 11.7406 69.7401C16.5406 58.2501 21.3406 46.7602 26.1506 35.2802C27.1706 32.8502 27.5506 32.7001 30.0606 33.7401C36.4806 36.4201 42.9006 39.1001 49.3106 41.8001C51.6406 42.7801 51.8206 43.2401 50.8806 45.5701C49.9606 47.8701 49.0306 50.1602 48.1106 52.4602C50.7106 51.6702 53.6606 51.8001 54.5906 48.4201C55.2006 46.2201 56.2906 44.1601 57.2606 42.0701C57.7906 40.9301 57.9006 39.9401 57.1206 38.8601C56.5806 38.1101 56.2406 37.1401 57.2206 36.4901C58.2906 35.7801 58.9206 36.5702 59.5606 37.3902C60.8506 39.0502 61.2106 40.6701 60.1406 42.6601C59.1206 44.5601 58.4806 46.6701 57.5606 48.6301C56.8606 50.1101 57.0406 50.5001 58.8206 50.5101C68.8406 50.5601 76.4006 54.9601 80.8906 63.9801C87.9806 78.2501 78.9106 95.4302 63.1906 97.8402C62.7006 97.9202 62.2206 98.1202 61.7406 98.2702H57.5306L57.5206 98.2802ZM59.4806 95.3701C71.1406 95.3701 80.5406 85.9601 80.5306 74.2901C80.5206 62.6301 71.0606 53.2302 59.4106 53.2802C47.8406 53.3302 38.4706 62.6902 38.4006 74.2602C38.3406 85.7901 47.9006 95.3701 59.4806 95.3801V95.3701ZM47.9606 45.0802C48.0706 44.3402 47.5306 44.1901 47.0706 43.9901C41.3706 41.6001 35.6606 39.2301 29.9806 36.8001C28.9606 36.3701 28.6306 36.7701 28.3006 37.6101C27.6406 39.2701 26.9206 40.9001 26.2306 42.5501C22.4906 51.4901 18.7406 60.4201 15.0206 69.3701C14.7006 70.1301 14.0306 70.9602 15.4206 71.5302C21.1906 73.9102 26.9406 76.3401 32.7006 78.7501C33.1906 78.9501 33.7106 79.1302 33.9706 78.4502C34.6306 76.7402 35.6506 75.1701 35.7206 73.2301C35.9306 67.4501 38.0806 62.4501 41.9506 58.1801C42.5106 57.5601 43.0206 56.9402 43.3506 56.1502C44.7406 52.7902 46.1606 49.4502 47.5606 46.0902C47.7106 45.7402 47.8406 45.3801 47.9606 45.0601V45.0802Z" fill="white"/>
<path d="M55.5508 11.5301C55.4008 15.2401 54.6308 18.8101 52.8708 22.0301C51.8108 23.9701 51.8008 25.4701 53.1908 27.1901C54.2208 28.4701 54.9607 29.9901 55.8407 31.4001C56.3907 32.2801 56.7407 33.2301 55.7407 33.9401C54.6107 34.7401 53.9808 33.7801 53.4708 32.9701C51.4508 29.7201 49.4708 26.4401 47.4708 23.1701C46.3908 21.4201 45.6608 21.2801 43.2808 22.2601C41.7508 22.8901 42.6108 24.1001 42.5708 25.0601C42.5308 26.2401 43.6608 26.1201 44.3507 26.4501C46.5008 27.5001 47.5908 29.6201 47.0508 31.8001C46.5308 33.8901 44.6707 35.4101 42.6307 35.3801C40.3907 35.3501 38.4508 33.7101 38.0408 31.4901C37.8108 30.2301 38.1408 29.0801 38.8208 28.0301C39.1707 27.4901 39.4908 26.9801 39.5508 26.3001C39.8208 23.3201 39.5508 23.0701 36.6608 23.7401C33.4308 24.4801 30.2007 25.2801 26.9507 25.9201C25.4807 26.2101 24.6807 26.9101 24.1007 28.3201C19.0507 40.5301 13.9307 52.7101 8.82075 64.8901C8.75075 65.0701 8.68075 65.2501 8.59075 65.4201C8.06075 66.4301 7.85075 68.1501 6.19075 67.4201C4.72075 66.7701 5.57075 65.4401 6.00075 64.4101C10.8608 52.7601 15.9408 41.1901 20.5008 29.4201C22.0907 25.3001 24.2507 23.0701 28.6707 22.6501C31.5607 22.3701 34.3708 21.3201 37.2507 20.7901C38.9907 20.4701 39.6408 19.7601 39.6108 17.9001C39.5508 13.9501 39.8307 9.99009 41.0907 6.19009C41.7707 4.16009 42.7108 2.2701 44.6307 1.1301C47.3107 -0.459904 50.6508 0.300113 52.8308 2.96011C54.8808 5.46011 55.4408 8.43012 55.5508 11.5301ZM49.8908 22.1301C51.9207 18.3001 52.9308 14.8401 52.8908 11.1601C52.8708 8.78006 52.3308 6.47011 50.7208 4.58011C48.7108 2.23011 46.0007 2.45007 44.4507 5.10007C44.1007 5.70007 43.8208 6.35011 43.6108 7.02011C42.4908 10.7001 42.2108 14.5001 42.1108 18.3201C42.0808 19.5501 42.7707 19.5901 43.5607 19.3001C46.2907 18.3101 48.7007 18.1301 49.8807 22.1301H49.8908ZM44.3407 30.7801C44.2507 29.6601 43.6507 28.9501 42.5308 28.9701C41.5107 28.9801 40.8408 29.6501 40.8308 30.6801C40.8208 31.8001 41.4508 32.4801 42.6208 32.4601C43.6908 32.4501 44.2107 31.8001 44.3407 30.7801Z" fill="white"/>
<path d="M29.0815 9.27006C28.1915 9.27006 27.3015 9.30006 26.4115 9.27006C25.5915 9.23006 25.0715 8.73003 25.1115 7.93003C25.1415 7.25003 25.6315 6.75003 26.3715 6.74003C28.1515 6.71003 29.9315 6.71003 31.7115 6.74003C32.5515 6.75003 33.0015 7.24007 32.9715 8.09007C32.9415 8.85007 32.4915 9.25007 31.7515 9.28007C30.8615 9.31007 29.9715 9.28007 29.0815 9.28007V9.27006Z" fill="white"/>
<path d="M81.2005 40.7501C82.0305 40.7501 82.8505 40.7301 83.6805 40.7501C84.3905 40.7701 84.9205 41.1001 84.9905 41.8601C85.0705 42.7201 84.5005 43.2401 83.7605 43.2801C81.9205 43.3601 80.0705 43.3501 78.2305 43.2601C77.5605 43.2301 77.0905 42.7301 77.1205 41.9501C77.1505 41.1701 77.6105 40.7901 78.3405 40.7701C79.2905 40.7301 80.2505 40.7701 81.2005 40.7701V40.7501Z" fill="white"/>
<path d="M71.8403 32.6599C70.9503 32.6599 70.0603 32.6799 69.1703 32.6599C68.4403 32.6299 67.9703 32.2499 67.9203 31.4899C67.8703 30.7399 68.2603 30.1899 68.9803 30.1599C70.8803 30.0899 72.7903 30.0899 74.7003 30.1599C75.3903 30.1899 75.8403 30.7499 75.7903 31.4899C75.7503 32.1199 75.3303 32.58 74.7003 32.63C73.7503 32.7 72.8003 32.65 71.8403 32.65C71.8403 32.65 71.8403 32.6599 71.8403 32.6699V32.6599Z" fill="white"/>
<path d="M15.06 23.56C14.23 23.56 13.41 23.59 12.58 23.56C11.87 23.53 11.35 23.17 11.28 22.42C11.21 21.66 11.71 21.11 12.36 21.08C14.26 20.99 16.16 20.99 18.06 21.06C18.73 21.09 19.19 21.6 19.15 22.38C19.11 23.17 18.62 23.52 17.91 23.55C16.96 23.59 16 23.56 15.05 23.56H15.06Z" fill="white"/>
<path d="M59.6997 91.0301C50.5597 91.0801 43.5297 84.32 42.8197 74.96C42.1997 66.81 48.7897 58.89 57.1297 57.77C65.8597 56.6 74.1097 62.32 75.8497 70.81C76.4797 73.86 76.4297 76.92 75.2797 79.86C74.8697 80.92 74.6497 82.58 72.9597 81.95C71.4097 81.37 72.2197 80.01 72.5597 78.97C74.7997 72.04 72.1197 65.09 65.6997 61.94C60.4797 59.38 55.3397 59.88 50.8097 63.56C46.2197 67.29 44.5797 72.27 46.1597 77.98C47.7297 83.66 51.6297 87.07 57.4997 88.02C61.7197 88.7 65.4497 87.53 68.6697 84.73C68.8597 84.56 69.0597 84.4 69.2497 84.23C69.9897 83.6 70.8297 83.1901 71.6197 84.0301C72.4397 84.91 71.8497 85.66 71.1497 86.32C68.3197 89.01 64.9797 90.57 61.0897 90.95C60.5797 91 60.0697 91.0101 59.7097 91.0301H59.6997Z" fill="white"/>
<path d="M59.491 64.98C60.361 65.05 60.941 65.51 60.881 66.3C60.791 67.63 61.431 68.02 62.601 68.23C63.511 68.39 64.151 69.1 64.361 70.06C64.511 70.78 64.501 71.47 63.731 71.89C63.031 72.27 62.511 71.99 62.061 71.45C60.991 70.16 59.621 70.77 58.361 70.92C57.821 70.99 57.481 71.45 57.521 72.04C57.561 72.63 57.931 72.99 58.481 73.07C59.361 73.2 60.261 73.22 61.141 73.35C62.921 73.61 64.031 74.66 64.361 76.41C64.711 78.24 64.091 79.78 62.391 80.56C61.301 81.06 60.841 81.65 60.891 82.84C60.921 83.65 60.361 84.11 59.521 84.09C58.761 84.07 58.291 83.6 58.321 82.87C58.361 81.59 57.791 81.11 56.571 80.9C55.471 80.71 54.891 79.82 54.761 78.7C54.701 78.16 54.811 77.65 55.301 77.36C55.841 77.04 56.541 76.98 56.881 77.49C57.701 78.73 58.901 78.33 59.991 78.37C60.821 78.4 61.631 78.16 61.661 77.2C61.691 76.22 60.891 76.02 60.061 75.97C59.301 75.92 58.531 75.9 57.791 75.74C56.041 75.36 55.021 74.25 54.801 72.46C54.591 70.69 55.251 69.25 56.881 68.53C57.921 68.07 58.381 67.52 58.321 66.41C58.281 65.61 58.731 65.1 59.521 64.98H59.491Z" fill="white"/>
<path d="M27.5898 67.61C26.2998 67.46 26.1799 66.49 26.6199 65.54C27.2299 64.24 27.0499 63.48 25.6799 62.89C24.7999 62.52 24.4398 61.59 24.3798 60.67C24.3198 59.83 24.4899 58.92 25.4599 58.66C26.4999 58.38 26.8799 59.07 27.1399 59.99C27.4699 61.17 30.8399 62.64 31.9599 62.16C32.5199 61.92 32.8998 61.48 32.9898 60.87C33.1098 60.08 32.7399 59.48 32.0799 59.12C31.2999 58.69 30.4398 58.4 29.6698 57.97C27.6398 56.83 26.7999 54.91 27.3699 52.81C27.8699 50.93 29.6799 49.56 31.8899 49.72C33.1199 49.81 33.4298 49.2 33.7799 48.33C34.1299 47.43 34.6698 46.63 35.7698 47.12C36.7398 47.55 36.6699 48.53 36.2599 49.27C35.5399 50.57 36.0499 51.13 37.1899 51.76C38.3499 52.4 38.7598 53.54 38.4198 54.89C38.2498 55.58 37.8899 56.04 37.1199 56.05C36.4399 56.05 36.0999 55.63 35.8599 55.07C35.3399 53.84 32.8399 52.27 31.5299 52.37C30.7699 52.43 30.1999 52.82 29.9699 53.58C29.7499 54.34 29.9699 55.01 30.6499 55.41C31.4199 55.86 32.2699 56.16 33.0499 56.58C35.1999 57.73 36.1099 59.67 35.5499 61.83C35.0499 63.76 33.4099 64.98 31.0699 64.91C30.0499 64.88 29.5399 65.19 29.2199 66.1C28.9699 66.83 28.6399 67.55 27.5799 67.61H27.5898Z" fill="white"/>
</svg>
