<svg width="19" height="15" viewBox="0 0 19 15" fill="none" xmlns="http://www.w3.org/2000/svg">
<path d="M0.200381 6.45007C0.200381 5.65007 0.620398 5.03012 1.2804 4.75012C1.9704 4.46012 2.7304 4.62007 3.2804 5.20007C4.4104 6.39007 5.54039 7.59018 6.65039 8.81018C6.93039 9.12018 7.08034 9.1601 7.41034 8.8501C10.2103 6.2101 13.0304 3.59009 15.8404 0.970093C16.5304 0.330093 17.3404 0.230176 18.0704 0.680176C18.7404 1.10018 19.0504 1.88016 18.8404 2.66016C18.7404 3.04016 18.5003 3.3301 18.2203 3.6001C14.5303 7.0401 10.8403 10.4702 7.16034 13.9202C6.92034 14.1402 6.80037 14.1702 6.56037 13.9202C4.64037 11.8502 2.7104 9.78009 0.780398 7.72009C0.420398 7.34009 0.180381 6.92007 0.200381 6.45007Z" fill="#FCFDFC"/>
</svg>
