<svg width="40" height="32" viewBox="0 0 40 32" fill="none" xmlns="http://www.w3.org/2000/svg">
<path d="M35.266 7.99409C35.292 8.34409 35.292 8.69209 35.292 9.04009C35.292 19.6901 27.186 31.9621 12.372 31.9621C7.808 31.9621 3.568 30.6401 0 28.3441C0.648 28.4181 1.272 28.4441 1.946 28.4441C5.57199 28.4528 9.09529 27.2404 11.948 25.0021C10.2668 24.9717 8.63715 24.417 7.28648 23.4156C5.9358 22.4141 4.93157 21.0159 4.414 19.4161C4.912 19.4901 5.412 19.5401 5.936 19.5401C6.658 19.5401 7.384 19.4401 8.058 19.2661C6.23352 18.8977 4.59295 17.9088 3.41524 16.4675C2.23753 15.0261 1.59539 13.2214 1.598 11.3601V11.2601C2.672 11.8581 3.918 12.2321 5.238 12.2821C4.13218 11.5473 3.22544 10.5501 2.59868 9.37967C1.97192 8.2092 1.64463 6.9018 1.646 5.57409C1.646 4.07809 2.044 2.70609 2.742 1.51009C4.76628 4.00013 7.29101 6.03721 10.1527 7.4894C13.0143 8.9416 16.1491 9.77652 19.354 9.94009C19.23 9.34009 19.154 8.71809 19.154 8.09409C19.1535 7.03601 19.3615 5.9882 19.7662 5.01057C20.1708 4.03293 20.7642 3.14464 21.5124 2.39646C22.2605 1.64829 23.1488 1.05491 24.1265 0.650243C25.1041 0.245577 26.1519 0.0375612 27.21 0.0380869C29.53 0.0380869 31.624 1.01009 33.096 2.58209C34.8995 2.23332 36.6291 1.57493 38.208 0.636087C37.6068 2.49772 36.3475 4.07629 34.666 5.07609C36.2656 4.89364 37.8289 4.47299 39.304 3.82809C38.2023 5.43428 36.837 6.84278 35.266 7.99409Z" fill="white"/>
</svg>
